<svg width="93" height="16" viewBox="0 0 93 16" fill="none" xmlns="http://www.w3.org/2000/svg">
<path d="M8.66667 9.83334H1.33334C1.06 9.83334 0.833336 9.60667 0.833336 9.33334V4C0.833336 2.25334 2.25334 0.833336 4 0.833336H10C10.2733 0.833336 10.5 1.06 10.5 1.33334V8C10.5 9.01334 9.68 9.83334 8.66667 9.83334ZM1.83334 8.83334H8.66667C9.12667 8.83334 9.5 8.46 9.5 8V1.83334H4C2.80667 1.83334 1.83334 2.80667 1.83334 4V8.83334Z" fill="#0C68F4"/>
<path d="M12.6667 13.8333H12C11.7267 13.8333 11.5 13.6067 11.5 13.3333C11.5 12.8733 11.1267 12.5 10.6667 12.5C10.2067 12.5 9.83334 12.8733 9.83334 13.3333C9.83334 13.6067 9.60667 13.8333 9.33334 13.8333H6.66667C6.39334 13.8333 6.16667 13.6067 6.16667 13.3333C6.16667 12.8733 5.79334 12.5 5.33334 12.5C4.87334 12.5 4.5 12.8733 4.5 13.3333C4.5 13.6067 4.27334 13.8333 4 13.8333H3.33334C1.95334 13.8333 0.833336 12.7133 0.833336 11.3333V9.33334C0.833336 9.06 1.06 8.83334 1.33334 8.83334H8.66667C9.12667 8.83334 9.5 8.46 9.5 8V3.33334C9.5 3.06 9.72667 2.83334 10 2.83334H11.2267C11.8867 2.83334 12.4933 3.18668 12.82 3.76001L13.96 5.75334C14.0467 5.90667 14.0467 6.10001 13.96 6.25334C13.8733 6.40667 13.7067 6.5 13.5267 6.5H12.6667C12.5733 6.5 12.5 6.57334 12.5 6.66667V8.66667C12.5 8.76 12.5733 8.83334 12.6667 8.83334H14.6667C14.94 8.83334 15.1667 9.06 15.1667 9.33334V11.3333C15.1667 12.7133 14.0467 13.8333 12.6667 13.8333ZM12.4333 12.8333H12.6667C13.4933 12.8333 14.1667 12.16 14.1667 11.3333V9.83334H12.6667C12.0267 9.83334 11.5 9.30667 11.5 8.66667V6.66667C11.5 6.02667 12.02 5.5 12.6667 5.5L11.9533 4.25334C11.8067 3.99334 11.5267 3.83334 11.2267 3.83334H10.5V8C10.5 9.01334 9.68 9.83334 8.66667 9.83334H1.83334V11.3333C1.83334 12.16 2.50667 12.8333 3.33334 12.8333H3.56667C3.78667 12.0667 4.49334 11.5 5.33334 11.5C6.17334 11.5 6.88 12.0667 7.1 12.8333H8.90666C9.12666 12.0667 9.83334 11.5 10.6733 11.5C11.5133 11.5 12.2133 12.0667 12.4333 12.8333Z" fill="#0C68F4"/>
<path d="M5.33333 15.1667C4.32 15.1667 3.5 14.3467 3.5 13.3333C3.5 12.32 4.32 11.5 5.33333 11.5C6.34667 11.5 7.16667 12.32 7.16667 13.3333C7.16667 14.3467 6.34667 15.1667 5.33333 15.1667ZM5.33333 12.5C4.87333 12.5 4.5 12.8733 4.5 13.3333C4.5 13.7933 4.87333 14.1667 5.33333 14.1667C5.79333 14.1667 6.16667 13.7933 6.16667 13.3333C6.16667 12.8733 5.79333 12.5 5.33333 12.5Z" fill="#0C68F4"/>
<path d="M10.6667 15.1667C9.65334 15.1667 8.83334 14.3467 8.83334 13.3333C8.83334 12.32 9.65334 11.5 10.6667 11.5C11.68 11.5 12.5 12.32 12.5 13.3333C12.5 14.3467 11.68 15.1667 10.6667 15.1667ZM10.6667 12.5C10.2067 12.5 9.83334 12.8733 9.83334 13.3333C9.83334 13.7933 10.2067 14.1667 10.6667 14.1667C11.1267 14.1667 11.5 13.7933 11.5 13.3333C11.5 12.8733 11.1267 12.5 10.6667 12.5Z" fill="#0C68F4"/>
<path d="M14.6667 9.83333H12.6667C12.0267 9.83333 11.5 9.30667 11.5 8.66667V6.66667C11.5 6.02667 12.0267 5.5 12.6667 5.5H13.5267C13.7067 5.5 13.8733 5.59334 13.96 5.75334L15.1 7.75334C15.14 7.82667 15.1667 7.91333 15.1667 8V9.33333C15.1667 9.60667 14.94 9.83333 14.6667 9.83333ZM12.6667 6.5C12.5733 6.5 12.5 6.57333 12.5 6.66667V8.66667C12.5 8.76 12.5733 8.83333 12.6667 8.83333H14.1667V8.13334L13.2333 6.5H12.6667Z" fill="#0C68F4"/>
<path d="M20.799 12V4.72727H25.3089V5.67188H21.8963V7.88778H24.9858V8.82884H21.8963V12H20.799ZM26.5048 12V6.54545H27.5311V7.41193H27.5879C27.6873 7.11837 27.8625 6.88755 28.1135 6.71946C28.3668 6.54901 28.6532 6.46378 28.9728 6.46378C29.0391 6.46378 29.1172 6.46615 29.2072 6.47088C29.2995 6.47562 29.3717 6.48153 29.4238 6.48864V7.50426C29.3812 7.49242 29.3055 7.4794 29.1966 7.4652C29.0877 7.44863 28.9788 7.44034 28.8699 7.44034C28.6189 7.44034 28.3952 7.49361 28.1987 7.60014C28.0046 7.70431 27.8507 7.84991 27.737 8.03693C27.6234 8.22159 27.5666 8.43229 27.5666 8.66903V12H26.5048ZM32.4982 12.1101C31.9608 12.1101 31.498 11.9953 31.1097 11.7656C30.7238 11.5336 30.4255 11.2081 30.2148 10.7891C30.0065 10.3677 29.9023 9.87405 29.9023 9.30824C29.9023 8.74953 30.0065 8.2571 30.2148 7.83097C30.4255 7.40483 30.7191 7.07221 31.0955 6.8331C31.4743 6.59399 31.917 6.47443 32.4237 6.47443C32.7314 6.47443 33.0297 6.52533 33.3185 6.62713C33.6074 6.72893 33.8666 6.88873 34.0962 7.10653C34.3259 7.32434 34.507 7.60724 34.6396 7.95526C34.7721 8.3009 34.8384 8.72112 34.8384 9.21591V9.59233H30.5025V8.79688H33.7979C33.7979 8.51752 33.7411 8.27012 33.6275 8.05469C33.5138 7.83688 33.354 7.66525 33.1481 7.53977C32.9445 7.4143 32.7054 7.35156 32.4308 7.35156C32.1325 7.35156 31.872 7.42495 31.6495 7.57173C31.4293 7.71615 31.2589 7.90554 31.1381 8.13991C31.0198 8.37192 30.9606 8.62405 30.9606 8.89631V9.51776C30.9606 9.88234 31.0245 10.1925 31.1523 10.4482C31.2826 10.7038 31.4637 10.8991 31.6957 11.0341C31.9277 11.1667 32.1987 11.233 32.5089 11.233C32.7101 11.233 32.8936 11.2045 33.0593 11.1477C33.225 11.0885 33.3683 11.0009 33.489 10.8849C33.6097 10.7689 33.7021 10.6257 33.766 10.4553L34.771 10.6364C34.6905 10.9323 34.546 11.1915 34.3377 11.4141C34.1317 11.6342 33.8725 11.8059 33.56 11.929C33.2499 12.0497 32.896 12.1101 32.4982 12.1101ZM38.3674 12.1101C37.83 12.1101 37.3671 11.9953 36.9789 11.7656C36.593 11.5336 36.2947 11.2081 36.084 10.7891C35.8757 10.3677 35.7715 9.87405 35.7715 9.30824C35.7715 8.74953 35.8757 8.2571 36.084 7.83097C36.2947 7.40483 36.5882 7.07221 36.9647 6.8331C37.3435 6.59399 37.7862 6.47443 38.2928 6.47443C38.6006 6.47443 38.8989 6.52533 39.1877 6.62713C39.4765 6.72893 39.7357 6.88873 39.9654 7.10653C40.195 7.32434 40.3761 7.60724 40.5087 7.95526C40.6413 8.3009 40.7076 8.72112 40.7076 9.21591V9.59233H36.3716V8.79688H39.6671C39.6671 8.51752 39.6103 8.27012 39.4966 8.05469C39.383 7.83688 39.2232 7.66525 39.0172 7.53977C38.8136 7.4143 38.5745 7.35156 38.2999 7.35156C38.0016 7.35156 37.7412 7.42495 37.5186 7.57173C37.2985 7.71615 37.128 7.90554 37.0073 8.13991C36.8889 8.37192 36.8297 8.62405 36.8297 8.89631V9.51776C36.8297 9.88234 36.8936 10.1925 37.0215 10.4482C37.1517 10.7038 37.3328 10.8991 37.5648 11.0341C37.7968 11.1667 38.0679 11.233 38.378 11.233C38.5792 11.233 38.7627 11.2045 38.9284 11.1477C39.0942 11.0885 39.2374 11.0009 39.3581 10.8849C39.4789 10.7689 39.5712 10.6257 39.6351 10.4553L40.6401 10.6364C40.5596 10.9323 40.4152 11.1915 40.2069 11.4141C40.0009 11.6342 39.7417 11.8059 39.4292 11.929C39.119 12.0497 38.7651 12.1101 38.3674 12.1101ZM46.9718 12H44.6174V4.72727H47.0463C47.7589 4.72727 48.3709 4.87287 48.8823 5.16406C49.3936 5.45289 49.7855 5.86837 50.0577 6.41051C50.3323 6.95028 50.4696 7.59777 50.4696 8.35298C50.4696 9.11056 50.3311 9.7616 50.0542 10.3061C49.7795 10.8506 49.3818 11.2696 48.861 11.5632C48.3401 11.8544 47.7104 12 46.9718 12ZM45.7147 11.0412H46.9114C47.4654 11.0412 47.9258 10.937 48.2928 10.7287C48.6597 10.518 48.9344 10.2138 49.1167 9.81605C49.2989 9.41596 49.3901 8.92827 49.3901 8.35298C49.3901 7.78243 49.2989 7.2983 49.1167 6.90057C48.9367 6.50284 48.668 6.20099 48.3105 5.99503C47.9531 5.78906 47.5092 5.68608 46.9789 5.68608H45.7147V11.0412ZM54.0998 12.1101C53.5624 12.1101 53.0996 11.9953 52.7113 11.7656C52.3254 11.5336 52.0271 11.2081 51.8164 10.7891C51.6081 10.3677 51.5039 9.87405 51.5039 9.30824C51.5039 8.74953 51.6081 8.2571 51.8164 7.83097C52.0271 7.40483 52.3207 7.07221 52.6971 6.8331C53.0759 6.59399 53.5186 6.47443 54.0252 6.47443C54.333 6.47443 54.6313 6.52533 54.9201 6.62713C55.2089 6.72893 55.4682 6.88873 55.6978 7.10653C55.9274 7.32434 56.1085 7.60724 56.2411 7.95526C56.3737 8.3009 56.44 8.72112 56.44 9.21591V9.59233H52.104V8.79688H55.3995C55.3995 8.51752 55.3427 8.27012 55.229 8.05469C55.1154 7.83688 54.9556 7.66525 54.7496 7.53977C54.546 7.4143 54.3069 7.35156 54.0323 7.35156C53.734 7.35156 53.4736 7.42495 53.2511 7.57173C53.0309 7.71615 52.8604 7.90554 52.7397 8.13991C52.6213 8.37192 52.5621 8.62405 52.5621 8.89631V9.51776C52.5621 9.88234 52.6261 10.1925 52.7539 10.4482C52.8841 10.7038 53.0652 10.8991 53.2972 11.0341C53.5292 11.1667 53.8003 11.233 54.1104 11.233C54.3117 11.233 54.4951 11.2045 54.6609 11.1477C54.8266 11.0885 54.9698 11.0009 55.0906 10.8849C55.2113 10.7689 55.3036 10.6257 55.3675 10.4553L56.3725 10.6364C56.292 10.9323 56.1476 11.1915 55.9393 11.4141C55.7333 11.6342 55.4741 11.8059 55.1616 11.929C54.8514 12.0497 54.4975 12.1101 54.0998 12.1101ZM58.6799 4.72727V12H57.6181V4.72727H58.6799ZM60.1083 12V6.54545H61.1701V12H60.1083ZM60.6445 5.70384C60.4599 5.70384 60.3013 5.64228 60.1687 5.51918C60.0385 5.3937 59.9734 5.24455 59.9734 5.07173C59.9734 4.89654 60.0385 4.7474 60.1687 4.62429C60.3013 4.49882 60.4599 4.43608 60.6445 4.43608C60.8292 4.43608 60.9866 4.49882 61.1168 4.62429C61.2494 4.7474 61.3157 4.89654 61.3157 5.07173C61.3157 5.24455 61.2494 5.3937 61.1168 5.51918C60.9866 5.64228 60.8292 5.70384 60.6445 5.70384ZM67.2647 6.54545L65.2868 12H64.1504L62.1689 6.54545H63.3088L64.6902 10.7429H64.747L66.1248 6.54545H67.2647ZM70.4279 12.1101C69.8905 12.1101 69.4277 11.9953 69.0394 11.7656C68.6535 11.5336 68.3552 11.2081 68.1445 10.7891C67.9362 10.3677 67.832 9.87405 67.832 9.30824C67.832 8.74953 67.9362 8.2571 68.1445 7.83097C68.3552 7.40483 68.6488 7.07221 69.0252 6.8331C69.404 6.59399 69.8467 6.47443 70.3533 6.47443C70.6611 6.47443 70.9594 6.52533 71.2482 6.62713C71.5371 6.72893 71.7963 6.88873 72.0259 7.10653C72.2556 7.32434 72.4367 7.60724 72.5692 7.95526C72.7018 8.3009 72.7681 8.72112 72.7681 9.21591V9.59233H68.4322V8.79688H71.7276C71.7276 8.51752 71.6708 8.27012 71.5572 8.05469C71.4435 7.83688 71.2837 7.66525 71.0778 7.53977C70.8742 7.4143 70.6351 7.35156 70.3604 7.35156C70.0621 7.35156 69.8017 7.42495 69.5792 7.57173C69.359 7.71615 69.1886 7.90554 69.0678 8.13991C68.9495 8.37192 68.8903 8.62405 68.8903 8.89631V9.51776C68.8903 9.88234 68.9542 10.1925 69.082 10.4482C69.2122 10.7038 69.3933 10.8991 69.6254 11.0341C69.8574 11.1667 70.1284 11.233 70.4386 11.233C70.6398 11.233 70.8233 11.2045 70.989 11.1477C71.1547 11.0885 71.2979 11.0009 71.4187 10.8849C71.5394 10.7689 71.6317 10.6257 71.6957 10.4553L72.7006 10.6364C72.6201 10.9323 72.4757 11.1915 72.2674 11.4141C72.0614 11.6342 71.8022 11.8059 71.4897 11.929C71.1796 12.0497 70.8256 12.1101 70.4279 12.1101ZM73.9462 12V6.54545H74.9725V7.41193H75.0293C75.1287 7.11837 75.3039 6.88755 75.5549 6.71946C75.8082 6.54901 76.0946 6.46378 76.4142 6.46378C76.4805 6.46378 76.5587 6.46615 76.6486 6.47088C76.7409 6.47562 76.8132 6.48153 76.8652 6.48864V7.50426C76.8226 7.49242 76.7469 7.4794 76.638 7.4652C76.5291 7.44863 76.4202 7.44034 76.3113 7.44034C76.0603 7.44034 75.8366 7.49361 75.6401 7.60014C75.446 7.70431 75.2921 7.84991 75.1784 8.03693C75.0648 8.22159 75.008 8.43229 75.008 8.66903V12H73.9462ZM78.6213 14.0455C78.4627 14.0455 78.3182 14.0324 78.188 14.0064C78.0578 13.9827 77.9608 13.9567 77.8968 13.9283L78.1525 13.0582C78.3467 13.1103 78.5195 13.1328 78.671 13.1257C78.8225 13.1186 78.9563 13.0618 79.0723 12.9553C79.1906 12.8487 79.2948 12.6747 79.3848 12.4332L79.5162 12.071L77.5204 6.54545H78.6568L80.0382 10.7784H80.095L81.4764 6.54545H82.6163L80.3684 12.728C80.2643 13.0121 80.1317 13.2524 79.9707 13.4489C79.8097 13.6477 79.618 13.7969 79.3954 13.8963C79.1729 13.9957 78.9148 14.0455 78.6213 14.0455Z" fill="#717171"/>
</svg>
