<svg width="93" height="16" viewBox="0 0 93 16" fill="none" xmlns="http://www.w3.org/2000/svg">
<path d="M7.19333 10.1133C7.06 10.1133 6.93333 10.06 6.84 9.96667L5.22667 8.35334C5.03333 8.16 5.03333 7.84 5.22667 7.64667C5.42 7.45334 5.74 7.45334 5.93333 7.64667L7.19333 8.90667L10.06 6.04C10.2533 5.84667 10.5733 5.84667 10.7667 6.04C10.96 6.23334 10.96 6.55334 10.7667 6.74667L7.54666 9.96667C7.45333 10.06 7.32667 10.1133 7.19333 10.1133Z" fill="#0C68F4"/>
<path d="M8 15.1667C7.58 15.1667 7.16 15.0267 6.83334 14.7467L5.78 13.84C5.67334 13.7467 5.40667 13.6533 5.26667 13.6533H4.12C3.13334 13.6533 2.33334 12.8533 2.33334 11.8667V10.7267C2.33334 10.5867 2.24 10.3267 2.14667 10.22L1.24667 9.16C0.700003 8.51334 0.700003 7.49334 1.24667 6.84667L2.14667 5.78667C2.24 5.68 2.33334 5.42 2.33334 5.28V4.13334C2.33334 3.14667 3.13334 2.34667 4.12 2.34667H5.27334C5.41334 2.34667 5.68 2.24667 5.78667 2.16L6.84 1.25334C7.49334 0.693336 8.51334 0.693336 9.16667 1.25334L10.22 2.16C10.3267 2.25334 10.5933 2.34667 10.7333 2.34667H11.8667C12.8533 2.34667 13.6533 3.14667 13.6533 4.13334V5.26667C13.6533 5.40667 13.7533 5.67334 13.8467 5.78L14.7533 6.83334C15.3133 7.48667 15.3133 8.50667 14.7533 9.16L13.8467 10.2133C13.7533 10.32 13.6533 10.5867 13.6533 10.7267V11.86C13.6533 12.8467 12.8533 13.6467 11.8667 13.6467H10.7333C10.5933 13.6467 10.3267 13.7467 10.22 13.8333L9.16667 14.74C8.84 15.0267 8.42 15.1667 8 15.1667ZM4.12 3.34667C3.68667 3.34667 3.33334 3.7 3.33334 4.13334V5.27334C3.33334 5.65334 3.15334 6.14 2.90667 6.42667L2.00667 7.48667C1.77334 7.76 1.77334 8.23334 2.00667 8.50667L2.90667 9.56667C3.15334 9.86 3.33334 10.34 3.33334 10.72V11.86C3.33334 12.2933 3.68667 12.6467 4.12 12.6467H5.27334C5.66 12.6467 6.14667 12.8267 6.44 13.08L7.49334 13.9867C7.76667 14.22 8.24667 14.22 8.52 13.9867L9.57334 13.08C9.86667 12.8333 10.3533 12.6467 10.74 12.6467H11.8733C12.3067 12.6467 12.66 12.2933 12.66 11.86V10.7267C12.66 10.34 12.84 9.85334 13.0933 9.56L14 8.50667C14.2333 8.23334 14.2333 7.75334 14 7.48L13.0933 6.42667C12.84 6.13334 12.66 5.64667 12.66 5.26V4.13334C12.66 3.7 12.3067 3.34667 11.8733 3.34667H10.74C10.3533 3.34667 9.86667 3.16667 9.57334 2.91334L8.52 2.00667C8.24667 1.77334 7.76667 1.77334 7.49334 2.00667L6.44 2.92C6.14667 3.16667 5.65334 3.34667 5.27334 3.34667H4.12Z" fill="#0C68F4"/>
<path d="M25.7209 7.02486C25.6522 6.80942 25.5599 6.61648 25.4439 6.44602C25.3303 6.2732 25.1941 6.12642 25.0355 6.00568C24.8769 5.88258 24.6958 5.78906 24.4922 5.72514C24.291 5.66122 24.0696 5.62926 23.8281 5.62926C23.4186 5.62926 23.0492 5.73461 22.7202 5.94531C22.3911 6.15601 22.1307 6.46496 21.9389 6.87216C21.7495 7.27699 21.6548 7.77296 21.6548 8.36009C21.6548 8.94957 21.7507 9.44792 21.9425 9.85511C22.1342 10.2623 22.397 10.5713 22.7308 10.782C23.0646 10.9927 23.4446 11.098 23.8707 11.098C24.2661 11.098 24.6106 11.0175 24.9041 10.8565C25.2 10.6955 25.4285 10.4683 25.5895 10.1747C25.7528 9.87879 25.8345 9.53078 25.8345 9.13068L26.1186 9.18395H24.0376V8.27841H26.8963V9.10582C26.8963 9.71662 26.7661 10.2469 26.5057 10.6967C26.2476 11.1442 25.8902 11.4898 25.4332 11.7337C24.9787 11.9775 24.4579 12.0994 23.8707 12.0994C23.2126 12.0994 22.6349 11.9479 22.1378 11.6449C21.643 11.3419 21.2571 10.9122 20.9801 10.3558C20.7031 9.79711 20.5646 9.13423 20.5646 8.36719C20.5646 7.78717 20.6451 7.26634 20.8061 6.80469C20.9671 6.34304 21.1932 5.95123 21.4844 5.62926C21.7779 5.30492 22.1224 5.05753 22.5178 4.88707C22.9155 4.71425 23.3499 4.62784 23.821 4.62784C24.214 4.62784 24.5798 4.68584 24.9183 4.80185C25.2592 4.91785 25.5623 5.08239 25.8274 5.29545C26.0949 5.50852 26.3163 5.76184 26.4915 6.0554C26.6667 6.34659 26.785 6.66974 26.8466 7.02486H25.7209ZM31.6593 9.73793V6.54545H32.7246V12H31.6806V11.0554H31.6238C31.4983 11.3466 31.2971 11.5893 31.0201 11.7834C30.7454 11.9751 30.4033 12.071 29.9938 12.071C29.6434 12.071 29.3333 11.9941 29.0634 11.8402C28.7959 11.6839 28.5852 11.4531 28.4313 11.1477C28.2798 10.8423 28.204 10.4647 28.204 10.0149V6.54545H29.2658V9.88707C29.2658 10.2588 29.3688 10.5547 29.5748 10.7749C29.7807 10.995 30.0482 11.1051 30.3773 11.1051C30.5762 11.1051 30.7739 11.0554 30.9703 10.956C31.1692 10.8565 31.3337 10.7062 31.464 10.505C31.5965 10.3037 31.6616 10.0481 31.6593 9.73793ZM35.7386 12.1207C35.393 12.1207 35.0805 12.0568 34.8011 11.929C34.5218 11.7988 34.3004 11.6106 34.1371 11.3643C33.9761 11.1181 33.8956 10.8163 33.8956 10.4588C33.8956 10.151 33.9548 9.89773 34.0732 9.69886C34.1915 9.5 34.3513 9.34257 34.5526 9.22656C34.7538 9.11056 34.9787 9.02296 35.2273 8.96378C35.4759 8.90459 35.7292 8.85961 35.9872 8.82884C36.3139 8.79096 36.5791 8.76018 36.7827 8.73651C36.9863 8.71046 37.1342 8.66903 37.2266 8.61222C37.3189 8.5554 37.3651 8.46307 37.3651 8.33523V8.31037C37.3651 8.00024 37.2775 7.75994 37.1023 7.58949C36.9295 7.41903 36.6714 7.33381 36.3281 7.33381C35.9706 7.33381 35.6889 7.41312 35.483 7.57173C35.2794 7.72798 35.1385 7.90199 35.0604 8.09375L34.0625 7.86648C34.1809 7.53504 34.3537 7.26752 34.581 7.06392C34.8106 6.85795 35.0746 6.70881 35.3729 6.61648C35.6712 6.52178 35.9848 6.47443 36.3139 6.47443C36.5317 6.47443 36.7625 6.50047 37.0064 6.55256C37.2526 6.60227 37.4822 6.6946 37.6953 6.82955C37.9107 6.96449 38.0871 7.15743 38.2244 7.40838C38.3617 7.65696 38.4304 7.98011 38.4304 8.37784V12H37.3935V11.2543H37.3509C37.2822 11.3916 37.1792 11.5265 37.0419 11.6591C36.9046 11.7917 36.7282 11.9018 36.5128 11.9893C36.2973 12.0769 36.0393 12.1207 35.7386 12.1207ZM35.9695 11.2685C36.263 11.2685 36.514 11.2105 36.7223 11.0945C36.933 10.9785 37.0928 10.8269 37.2017 10.6399C37.313 10.4505 37.3686 10.2481 37.3686 10.0327V9.32955C37.3307 9.36742 37.2573 9.40294 37.1484 9.43608C37.0419 9.46686 36.92 9.49408 36.7827 9.51776C36.6454 9.53906 36.5116 9.55919 36.3814 9.57812C36.2512 9.5947 36.1423 9.6089 36.0547 9.62074C35.8487 9.64678 35.6605 9.69058 35.4901 9.75213C35.322 9.81368 35.187 9.90246 35.0852 10.0185C34.9858 10.1321 34.9361 10.2836 34.9361 10.473C34.9361 10.7358 35.0331 10.9347 35.2273 11.0696C35.4214 11.2022 35.6688 11.2685 35.9695 11.2685ZM39.8446 12V6.54545H40.8709V7.41193H40.9277C41.0272 7.11837 41.2024 6.88755 41.4533 6.71946C41.7066 6.54901 41.9931 6.46378 42.3127 6.46378C42.379 6.46378 42.4571 6.46615 42.5471 6.47088C42.6394 6.47562 42.7116 6.48153 42.7637 6.48864V7.50426C42.7211 7.49242 42.6453 7.4794 42.5364 7.4652C42.4275 7.44863 42.3186 7.44034 42.2097 7.44034C41.9587 7.44034 41.735 7.49361 41.5385 7.60014C41.3444 7.70431 41.1905 7.84991 41.0769 8.03693C40.9632 8.22159 40.9064 8.43229 40.9064 8.66903V12H39.8446ZM45.2211 12.1207C44.8754 12.1207 44.5629 12.0568 44.2836 11.929C44.0042 11.7988 43.7828 11.6106 43.6195 11.3643C43.4585 11.1181 43.378 10.8163 43.378 10.4588C43.378 10.151 43.4372 9.89773 43.5556 9.69886C43.6739 9.5 43.8337 9.34257 44.035 9.22656C44.2362 9.11056 44.4611 9.02296 44.7097 8.96378C44.9583 8.90459 45.2116 8.85961 45.4696 8.82884C45.7963 8.79096 46.0615 8.76018 46.2651 8.73651C46.4687 8.71046 46.6167 8.66903 46.709 8.61222C46.8013 8.5554 46.8475 8.46307 46.8475 8.33523V8.31037C46.8475 8.00024 46.7599 7.75994 46.5847 7.58949C46.4119 7.41903 46.1538 7.33381 45.8105 7.33381C45.4531 7.33381 45.1713 7.41312 44.9654 7.57173C44.7618 7.72798 44.6209 7.90199 44.5428 8.09375L43.5449 7.86648C43.6633 7.53504 43.8361 7.26752 44.0634 7.06392C44.293 6.85795 44.557 6.70881 44.8553 6.61648C45.1536 6.52178 45.4673 6.47443 45.7963 6.47443C46.0141 6.47443 46.245 6.50047 46.4888 6.55256C46.735 6.60227 46.9647 6.6946 47.1777 6.82955C47.3932 6.96449 47.5695 7.15743 47.7069 7.40838C47.8442 7.65696 47.9128 7.98011 47.9128 8.37784V12H46.8759V11.2543H46.8333C46.7646 11.3916 46.6616 11.5265 46.5243 11.6591C46.387 11.7917 46.2106 11.9018 45.9952 11.9893C45.7798 12.0769 45.5217 12.1207 45.2211 12.1207ZM45.4519 11.2685C45.7454 11.2685 45.9964 11.2105 46.2047 11.0945C46.4154 10.9785 46.5752 10.8269 46.6841 10.6399C46.7954 10.4505 46.851 10.2481 46.851 10.0327V9.32955C46.8132 9.36742 46.7398 9.40294 46.6309 9.43608C46.5243 9.46686 46.4024 9.49408 46.2651 9.51776C46.1278 9.53906 45.994 9.55919 45.8638 9.57812C45.7336 9.5947 45.6247 9.6089 45.5371 9.62074C45.3311 9.64678 45.1429 9.69058 44.9725 9.75213C44.8044 9.81368 44.6694 9.90246 44.5676 10.0185C44.4682 10.1321 44.4185 10.2836 44.4185 10.473C44.4185 10.7358 44.5156 10.9347 44.7097 11.0696C44.9038 11.2022 45.1512 11.2685 45.4519 11.2685ZM50.3888 8.76136V12H49.3271V6.54545H50.3462V7.43324H50.4137C50.5392 7.14441 50.7357 6.91241 51.0032 6.73722C51.2731 6.56203 51.6128 6.47443 52.0224 6.47443C52.3941 6.47443 52.7196 6.55256 52.9989 6.70881C53.2783 6.86269 53.4949 7.09233 53.6488 7.39773C53.8027 7.70312 53.8796 8.08073 53.8796 8.53054V12H52.8178V8.65838C52.8178 8.26302 52.7148 7.95407 52.5089 7.73153C52.3029 7.50663 52.02 7.39418 51.6602 7.39418C51.4139 7.39418 51.195 7.44744 51.0032 7.55398C50.8138 7.66051 50.6635 7.81676 50.5522 8.02273C50.4433 8.22633 50.3888 8.47254 50.3888 8.76136ZM57.8498 6.54545V7.39773H54.8704V6.54545H57.8498ZM55.6694 5.23864H56.7312V10.3984C56.7312 10.6044 56.762 10.7595 56.8235 10.8636C56.8851 10.9654 56.9644 11.0353 57.0614 11.0732C57.1609 11.1087 57.2686 11.1264 57.3846 11.1264C57.4698 11.1264 57.5444 11.1205 57.6083 11.1087C57.6722 11.0968 57.7219 11.0874 57.7575 11.0803L57.9492 11.9574C57.8877 11.9811 57.8001 12.0047 57.6864 12.0284C57.5728 12.0545 57.4308 12.0687 57.2603 12.071C56.9809 12.0758 56.7205 12.026 56.479 11.9219C56.2376 11.8177 56.0423 11.6567 55.8931 11.4389C55.744 11.2211 55.6694 10.9477 55.6694 10.6186V5.23864ZM61.3166 12.1101C60.7792 12.1101 60.3163 11.9953 59.9281 11.7656C59.5422 11.5336 59.2439 11.2081 59.0332 10.7891C58.8249 10.3677 58.7207 9.87405 58.7207 9.30824C58.7207 8.74953 58.8249 8.2571 59.0332 7.83097C59.2439 7.40483 59.5375 7.07221 59.9139 6.8331C60.2927 6.59399 60.7354 6.47443 61.242 6.47443C61.5498 6.47443 61.8481 6.52533 62.1369 6.62713C62.4257 6.72893 62.685 6.88873 62.9146 7.10653C63.1442 7.32434 63.3253 7.60724 63.4579 7.95526C63.5905 8.3009 63.6568 8.72112 63.6568 9.21591V9.59233H59.3208V8.79688H62.6163C62.6163 8.51752 62.5595 8.27012 62.4458 8.05469C62.3322 7.83688 62.1724 7.66525 61.9664 7.53977C61.7628 7.4143 61.5237 7.35156 61.2491 7.35156C60.9508 7.35156 60.6904 7.42495 60.4679 7.57173C60.2477 7.71615 60.0772 7.90554 59.9565 8.13991C59.8381 8.37192 59.7789 8.62405 59.7789 8.89631V9.51776C59.7789 9.88234 59.8429 10.1925 59.9707 10.4482C60.1009 10.7038 60.282 10.8991 60.514 11.0341C60.746 11.1667 61.0171 11.233 61.3272 11.233C61.5285 11.233 61.7119 11.2045 61.8777 11.1477C62.0434 11.0885 62.1866 11.0009 62.3074 10.8849C62.4281 10.7689 62.5204 10.6257 62.5843 10.4553L63.5893 10.6364C63.5088 10.9323 63.3644 11.1915 63.1561 11.4141C62.9501 11.6342 62.6909 11.8059 62.3784 11.929C62.0682 12.0497 61.7143 12.1101 61.3166 12.1101ZM67.1857 12.1101C66.6483 12.1101 66.1855 11.9953 65.7972 11.7656C65.4113 11.5336 65.113 11.2081 64.9023 10.7891C64.694 10.3677 64.5898 9.87405 64.5898 9.30824C64.5898 8.74953 64.694 8.2571 64.9023 7.83097C65.113 7.40483 65.4066 7.07221 65.783 6.8331C66.1618 6.59399 66.6045 6.47443 67.1112 6.47443C67.4189 6.47443 67.7172 6.52533 68.006 6.62713C68.2949 6.72893 68.5541 6.88873 68.7837 7.10653C69.0134 7.32434 69.1945 7.60724 69.3271 7.95526C69.4596 8.3009 69.5259 8.72112 69.5259 9.21591V9.59233H65.19V8.79688H68.4854C68.4854 8.51752 68.4286 8.27012 68.315 8.05469C68.2013 7.83688 68.0415 7.66525 67.8356 7.53977C67.632 7.4143 67.3929 7.35156 67.1183 7.35156C66.82 7.35156 66.5595 7.42495 66.337 7.57173C66.1168 7.71615 65.9464 7.90554 65.8256 8.13991C65.7073 8.37192 65.6481 8.62405 65.6481 8.89631V9.51776C65.6481 9.88234 65.712 10.1925 65.8398 10.4482C65.9701 10.7038 66.1512 10.8991 66.3832 11.0341C66.6152 11.1667 66.8862 11.233 67.1964 11.233C67.3976 11.233 67.5811 11.2045 67.7468 11.1477C67.9125 11.0885 68.0558 11.0009 68.1765 10.8849C68.2972 10.7689 68.3896 10.6257 68.4535 10.4553L69.4585 10.6364C69.378 10.9323 69.2335 11.1915 69.0252 11.4141C68.8192 11.6342 68.56 11.8059 68.2475 11.929C67.9374 12.0497 67.5835 12.1101 67.1857 12.1101ZM72.7459 12.1065C72.3056 12.1065 71.9126 11.9941 71.5669 11.7692C71.2237 11.5419 70.9538 11.2187 70.7573 10.7997C70.5632 10.3783 70.4661 9.87287 70.4661 9.28338C70.4661 8.69389 70.5643 8.18963 70.7608 7.7706C70.9597 7.35156 71.2319 7.03078 71.5776 6.80824C71.9232 6.5857 72.315 6.47443 72.753 6.47443C73.0916 6.47443 73.3638 6.53125 73.5698 6.64489C73.7781 6.75616 73.9391 6.88636 74.0527 7.03551C74.1687 7.18466 74.2587 7.31605 74.3226 7.42969H74.3865V4.72727H75.4483V12H74.4114V11.1513H74.3226C74.2587 11.2673 74.1664 11.3999 74.0456 11.549C73.9273 11.6982 73.7639 11.8284 73.5556 11.9396C73.3472 12.0509 73.0774 12.1065 72.7459 12.1065ZM72.9803 11.201C73.2857 11.201 73.5437 11.1205 73.7544 10.9595C73.9675 10.7962 74.1285 10.5701 74.2374 10.2812C74.3487 9.99242 74.4043 9.65625 74.4043 9.27273C74.4043 8.89394 74.3498 8.5625 74.2409 8.27841C74.132 7.99432 73.9722 7.77296 73.7615 7.61435C73.5508 7.45573 73.2904 7.37642 72.9803 7.37642C72.6607 7.37642 72.3944 7.45928 72.1813 7.625C71.9682 7.79072 71.8072 8.01681 71.6983 8.30327C71.5918 8.58973 71.5385 8.91288 71.5385 9.27273C71.5385 9.63731 71.593 9.9652 71.7019 10.2564C71.8108 10.5476 71.9718 10.7784 72.1848 10.9489C72.4003 11.117 72.6654 11.201 72.9803 11.201Z" fill="#717171"/>
</svg>
