<svg width="47" height="57" viewBox="0 0 47 57" fill="none" xmlns="http://www.w3.org/2000/svg">
<path d="M45.2038 19.4953C43.3629 20.6224 41.8379 22.1982 40.7718 24.0752C39.7056 25.9521 39.1331 28.0689 39.1078 30.2273C39.1151 32.6567 39.8348 35.0305 41.1779 37.0548C42.521 39.0792 44.4284 40.665 46.6639 41.616C45.7825 44.4598 44.4781 47.1546 42.7945 49.61C40.3855 53.0779 37.8666 56.5455 34.0339 56.5455C30.2013 56.5455 29.2155 54.3188 24.7987 54.3188C20.4914 54.3188 18.9582 56.6186 15.4539 56.6186C11.9496 56.6186 9.50417 53.4063 6.69331 49.4641C2.98037 43.9414 0.939789 37.4648 0.816406 30.8112C0.816406 19.8604 7.93457 14.0567 14.9428 14.0567C18.6662 14.0567 21.769 16.5021 24.1052 16.5021C26.3319 16.5021 29.7998 13.9104 34.0339 13.9104C36.2109 13.8542 38.3684 14.3342 40.3162 15.3081C42.2641 16.282 43.9426 17.72 45.2038 19.4953ZM32.0264 9.27471C33.8929 7.07904 34.9495 4.30941 35.0196 1.42847C35.0228 1.04868 34.9861 0.669608 34.9101 0.297485C31.7039 0.610676 28.7391 2.13879 26.6238 4.56838C24.7393 6.67656 23.643 9.37222 23.521 12.1973C23.5224 12.5408 23.5591 12.8833 23.6306 13.2194C23.8833 13.2672 24.1399 13.2917 24.3972 13.2925C25.8748 13.175 27.3131 12.7582 28.6246 12.0675C29.9361 11.3768 31.0935 10.4266 32.0264 9.27471Z" fill="#0C0C0C"/>
</svg>
