<svg width="91" height="91" viewBox="0 0 91 91" fill="none" xmlns="http://www.w3.org/2000/svg">
<g clip-path="url(#clip0_3385_58578)">
<path d="M14.3623 23.7336C14.3623 23.7336 7.43453 30.3617 7.06005 37.3643V38.675C7.35963 44.3295 11.6286 47.6623 11.6286 47.6623C18.4814 54.3654 35.0705 62.791 38.965 64.7008C38.965 64.7008 39.1897 64.8131 39.3395 64.6633L39.4144 64.5136V64.3638C28.7794 41.184 14.3623 23.7336 14.3623 23.7336ZM36.7557 70.3928C36.6808 70.0932 36.3812 70.0932 36.3812 70.0932L8.74518 71.0668C11.741 76.4218 16.7963 80.5409 22.0764 79.3052C25.6713 78.369 33.9097 72.6396 36.6059 70.6923C36.8306 70.5051 36.7557 70.3553 36.7557 70.3553V70.3928ZM37.0552 67.4719C24.9224 59.2709 1.40553 46.7261 1.40553 46.7261C0.843824 48.4487 0.656588 50.0964 0.619141 51.5943V51.8564C0.619141 55.8633 2.11703 58.6718 2.11703 58.6718C5.1128 65.0004 10.8797 66.9102 10.8797 66.9102C13.501 68.0336 16.1223 68.071 16.1223 68.071C16.5716 68.1459 32.599 68.071 36.868 68.071C37.0552 68.071 37.1676 67.8838 37.1676 67.8838V67.6591C37.1676 67.5468 37.0552 67.4719 37.0552 67.4719ZM34.5463 12.6867C31.8912 13.3646 29.5236 14.8762 27.7914 16.9994C26.0591 19.1226 25.0535 21.7455 24.9224 24.4825V26.0179C25.0347 28.2647 25.5215 29.9498 25.5215 29.9498C27.993 40.8095 39.9761 58.5969 42.56 62.3416C42.7472 62.5289 42.9345 62.454 42.9345 62.454C43.0064 62.4229 43.0667 62.37 43.107 62.3029C43.1473 62.2357 43.1656 62.1576 43.1591 62.0795C47.1285 22.3855 39.0025 11.8254 39.0025 11.8254C37.8042 11.9003 34.5463 12.6867 34.5463 12.6867ZM65.6237 21.1872C65.6237 21.1872 63.7888 14.4467 56.4866 12.6492C56.4866 12.6492 54.3521 12.125 52.1053 11.8254C52.1053 11.8254 43.9418 22.348 47.9112 62.1169C47.9486 62.3791 48.1359 62.4165 48.1359 62.4165C48.398 62.5289 48.5103 62.3042 48.5103 62.3042C51.2065 58.4471 63.1147 40.7346 65.5488 29.9498C65.5488 29.9498 66.8969 24.7072 65.6237 21.1872ZM54.6891 70.1306C54.6891 70.1306 54.427 70.1306 54.3521 70.3179C54.3521 70.3179 54.3146 70.58 54.4644 70.6923C57.0857 72.6021 65.1369 78.1818 68.9939 79.3052C68.9939 79.3052 69.5931 79.4924 70.6042 79.5299H71.1284C73.7123 79.455 78.2434 78.1443 82.3626 71.0668L54.6517 70.1306H54.6891ZM84.0103 38.6376C84.5345 30.9234 76.7455 23.771 76.7455 23.7336C76.7455 23.7336 62.3283 41.184 51.7682 64.1765C51.7682 64.1765 51.6559 64.4761 51.8431 64.6633L51.9929 64.7008H52.2176C56.187 62.7161 72.6638 54.3279 79.4791 47.6998C79.4791 47.6998 83.7856 44.2172 84.0103 38.6376ZM89.7022 46.6512C89.7022 46.6512 66.1854 59.2709 54.0525 67.4344C54.0525 67.4344 53.8653 67.5842 53.9402 67.8464C53.9402 67.8464 54.0525 68.071 54.2023 68.071C58.5462 68.071 75.0229 68.071 75.4349 67.9961C75.4349 67.9961 77.5693 67.9212 80.1906 66.9102C80.1906 66.9102 86.0324 65.0378 89.0656 58.4097C89.0656 58.4097 91.7993 52.9798 89.7022 46.6512Z" fill="#C91433"/>
</g>
<defs>
<clipPath id="clip0_3385_58578">
<rect width="89.8732" height="89.8732" fill="white" transform="translate(0.619141 0.741638)"/>
</clipPath>
</defs>
</svg>
