<svg width="214" height="33" viewBox="0 0 214 33" fill="none" xmlns="http://www.w3.org/2000/svg">
<path d="M176.25 1.2244L176.67 25.1208H176.463L169.525 1.2244H158.153V31.3263H165.677L165.257 6.59759H165.464L172.888 31.3263H183.774V1.2244H176.25ZM32.8916 1.2244L27.2055 31.6392H35.4217L39.6164 3.96759H39.7895L43.8844 31.6392H52.034L46.4145 1.2244H32.8916ZM78.8734 1.2244L75.1248 24.4217H74.9184L71.1365 1.2244H58.7189L58.1263 31.6392H65.7567L65.9631 4.28052H66.0296L71.1299 31.6392H78.8601L83.9603 4.28052H84.1667L84.3731 31.6392H92.0034L91.2777 1.2244H78.8734ZM14.3684 23.0035C14.6813 23.6959 14.5748 24.7346 14.4749 25.2207C14.2685 26.2594 13.5361 27.2648 11.5253 27.2648C9.58112 27.2648 8.47585 26.1528 8.47585 24.5282V21.5786H0.326172V23.9023C0.326172 30.7337 5.69937 32.7445 11.4255 32.7445C16.9052 32.7445 21.4794 30.8402 22.2118 25.8466C22.6313 23.2099 22.3183 21.4787 22.2118 20.8529C20.7869 14.4343 9.17497 12.6366 8.37598 9.06114C8.26945 8.43527 8.26945 7.84934 8.37598 7.42987C8.58238 6.42448 9.27484 5.38579 11.1125 5.38579C12.9502 5.38579 13.9556 6.49772 13.9556 8.12233V9.96H21.5859V7.84268C21.5859 1.21773 15.5868 0.212341 11.3189 0.212341C5.90577 0.212341 1.4381 2.01672 0.639109 6.90387C0.432704 8.2222 0.326172 9.46729 0.745641 10.9987C1.95744 17.2774 12.8503 19.1151 14.3751 22.9968L14.3684 23.0035ZM113.376 23.0035C113.689 23.6959 113.583 24.6348 113.483 25.2207C113.277 26.2594 112.544 27.2648 110.533 27.2648C108.589 27.2648 107.484 26.1528 107.484 24.5282V21.5786H99.3341V23.9023C99.3341 30.6272 104.607 32.6779 110.327 32.6779C115.807 32.6779 120.281 30.8402 121.007 25.74C121.426 23.1034 121.113 21.4721 121.007 20.7463C119.795 14.4343 108.283 12.5301 107.484 9.06114C107.377 8.43527 107.377 7.84934 107.484 7.42987C107.657 6.42448 108.383 5.38579 110.22 5.38579C111.952 5.38579 113.063 6.49772 113.063 8.12233V9.96H120.587V7.84268C120.587 1.21773 114.695 0.212341 110.427 0.212341C105.014 0.212341 100.646 1.91019 99.8468 6.90387C99.6404 8.2222 99.6404 9.46729 99.9134 10.9987C101.165 17.2774 111.845 19.0085 113.37 22.9968L113.376 23.0035ZM139.004 27.065C141.155 27.065 141.74 25.6402 141.954 24.8478C142.06 24.5349 142.06 24.0155 142.06 23.7026V1.23105H149.79V23.11C149.79 23.7026 149.79 24.8412 149.684 25.1208C149.198 30.8402 144.69 32.6779 139.104 32.6779C133.518 32.6779 129.05 30.8402 128.524 25.1208C128.524 24.8412 128.417 23.6959 128.417 23.11V1.23105H136.148V23.7026C136.148 24.1221 136.148 24.5349 136.254 24.8478C136.254 25.6468 136.88 27.065 138.991 27.065H139.004ZM202.504 26.7521C204.761 26.7521 205.453 25.3272 205.66 24.5349C205.766 24.2219 205.766 23.7026 205.766 23.423V19.0219H202.61V14.5475H213.396V22.6972C213.396 23.3231 213.396 23.7026 213.29 24.7413C212.771 30.3275 207.983 32.2651 202.61 32.2651C197.197 32.2651 192.45 30.3209 191.93 24.7413C191.824 23.7026 191.824 23.3164 191.824 22.6972V9.86678C191.824 9.38073 191.93 8.34205 191.93 7.856C192.623 2.13658 197.204 0.298902 202.61 0.298902C207.983 0.298902 212.664 2.13658 213.29 7.856C213.396 8.75486 213.396 9.86678 213.396 9.86678V10.9055H205.766V9.17433C205.766 9.17433 205.766 8.44858 205.66 8.02911C205.553 7.33665 204.934 5.81192 202.61 5.81192C200.353 5.81192 199.767 7.23678 199.561 8.02911C199.454 8.44858 199.454 8.96793 199.454 9.48727V23.4296C199.454 23.8091 199.454 24.2286 199.561 24.5415C199.561 25.3405 200.36 26.7587 202.51 26.7587L202.504 26.7521Z" fill="#063A88"/>
</svg>
