<svg width="200" height="36" viewBox="0 0 200 36" fill="none" xmlns="http://www.w3.org/2000/svg">
<path d="M67.8719 35.4218C59.2312 34.5266 52.0706 30.4402 49.2996 24.8071C48.1309 22.4299 48.0646 22.0735 48.0646 18.1314C48.0646 14.1876 48.1309 13.8328 49.2996 11.4572C51.5396 6.91002 56.3824 3.50167 63.2019 1.67482C67.5396 0.514395 75.1414 0.514398 79.5639 1.68312C85.7936 3.32429 90.5933 6.85863 92.8608 11.4639C94.0295 13.8361 94.0925 14.1859 94.0875 18.1264C94.0819 21.8099 93.9715 22.5211 93.1028 24.3595C90.3801 30.1285 84.4987 33.8784 76.2128 35.1283C72.7477 35.6588 70.7694 35.7201 67.8719 35.4218ZM75.8514 30.1551C79.8763 28.8952 83.1619 25.5001 84.1234 21.6093C84.3688 20.6147 84.4898 18.5773 84.3936 17.082C83.9858 10.8091 80.0162 6.62986 73.3674 5.47108C67.3398 4.4267 60.9825 7.51178 58.7231 12.5895C57.6191 15.0711 57.3953 19.5106 58.2391 22.1929C60.3945 29.046 68.1723 32.5621 75.8514 30.1551ZM15.1525 34.5431C13.2368 34.1287 10.531 33.3661 9.13983 32.8655C7.74897 32.3682 6.47216 32.0366 6.3034 32.1361C6.13431 32.3019 5.99672 32.7329 5.99672 33.2468C5.99672 34.1254 5.89725 34.1585 3.54424 34.1585H1.09192V28.1227V22.0851H3.35558C5.48083 22.0851 5.61941 22.0851 5.61941 22.9637C5.61941 25.016 9.19785 28.3547 12.3436 29.2367C18.3959 30.9342 23.9245 31.1365 28.2077 29.8169C31.6145 28.7725 32.9415 26.5677 31.4525 24.4424C30.6469 23.2986 29.1716 22.9505 20.2125 21.8862C8.33531 20.4605 5.52111 19.7112 2.8503 17.2279C-0.473167 14.1378 -0.648723 9.00708 2.45907 5.79435C4.28393 3.90783 5.80674 3.11542 10.0251 1.85718C16.1816 0.0203861 24.99 0.597287 31.1793 3.2497C33.416 4.21119 33.916 4.16146 33.916 3.00103C33.916 2.07269 33.9823 2.03953 36.0853 2.15558L38.2548 2.32135L38.3543 7.38579C38.4703 13.0321 38.4537 13.0586 35.9663 13.0686C34.5638 13.0736 34.3997 12.9028 33.9667 11.7755C33.2356 9.75472 30.5627 7.65601 27.4025 6.61991C25.0039 5.84077 23.9676 5.72472 19.0068 5.7413C12.1992 5.75622 10.0184 6.37125 8.92216 8.5512C8.36681 9.66189 8.34526 9.96029 8.77296 10.6201C9.53387 11.7805 11.1658 12.1618 19.0053 13.0669C22.9481 13.5145 27.3624 14.1113 28.8149 14.3931C36.604 15.8851 40.2935 19.136 40.3139 24.5088C40.3305 30.8182 33.9972 34.7122 22.9668 35.1631C19.528 35.3289 17.9055 35.1631 15.1449 34.5829L15.1525 34.5431ZM99.5642 31.7233V29.6412H102.165C104.188 29.6412 104.817 29.4754 104.995 29.0444C105.127 28.7128 105.223 23.8059 105.223 18.1297C105.223 6.08445 105.394 6.62654 101.612 6.62654H99.1866V4.55103V2.47718H106.756H114.325L119.678 7.26312C122.622 9.89729 127.378 14.1843 130.247 16.7902C133.116 19.3979 135.577 21.5729 135.718 21.6243C136.127 21.79 135.635 7.45707 135.217 7.04098C135.01 6.82547 133.651 6.60996 132.199 6.54365L129.558 6.37787V4.49136V2.60483H138.613H147.668L147.784 4.58584L147.9 6.56686H145.076C142.547 6.56686 142.226 6.56686 142.003 7.34601C141.87 7.77702 141.87 13.8991 142.036 20.9495L142.313 33.7673L139.184 33.6015H136.055L130.17 28.421C126.934 25.573 121.4 20.6644 117.872 17.513L111.458 11.7838L111.359 19.8223C111.292 24.2452 111.344 28.237 111.458 28.6962C111.644 29.4588 111.929 29.5417 114.583 29.6412L117.504 29.8069V31.6935V33.5783L108.543 33.7441L99.5825 33.9099V31.8294L99.5642 31.7233ZM164.989 33.265C164.873 32.9666 164.84 32.0714 164.907 31.279L165.023 29.8202L167.475 29.6544C170.642 29.4886 170.871 29.2068 170.871 25.0376V21.7784L164.457 14.5589C160.93 10.5886 157.715 7.16365 157.313 6.9498C156.912 6.73429 155.468 6.55195 154.106 6.55195H151.629V4.4698V2.38932L162.287 2.55509L172.946 2.72087L173.062 4.70188L173.178 6.68291H171.46C170.487 6.68291 169.743 6.86526 169.743 7.08077C169.743 7.29628 171.467 9.52098 173.575 12.0093C177.229 16.3211 177.438 16.5001 178.043 15.8486C181.131 12.5215 185.223 7.37585 185.03 7.06419C184.897 6.84868 184.12 6.68291 183.303 6.68291H181.816V4.6074V2.53188H190.493H199.171V4.59081V6.64975L196.255 6.81552L193.339 6.9813L186.811 14.3285L180.283 21.6756L180.382 25.6476L180.482 29.6196L183.425 29.7854L186.368 29.9512L186.252 31.9156L186.136 33.88L175.657 34.0458C166.918 34.2116 165.143 34.0574 164.973 33.6148L164.989 33.265Z" fill="#0C0C0C"/>
</svg>
