<svg width="20" height="20" viewBox="0 0 20 20" fill="none" xmlns="http://www.w3.org/2000/svg">
<path d="M9.99954 7.29174C9.65788 7.29174 9.37454 7.00841 9.37454 6.66674V3.17507L8.77454 3.77507C8.53288 4.01674 8.13288 4.01674 7.89121 3.77507C7.64954 3.53341 7.64954 3.13341 7.89121 2.89174L9.55788 1.22507C9.73288 1.05007 10.0079 0.991739 10.2412 1.09174C10.4745 1.18341 10.6245 1.41674 10.6245 1.66674V6.66674C10.6245 7.00841 10.3412 7.29174 9.99954 7.29174Z" fill="#2D2D2D"/>
<path d="M11.6665 3.95828C11.5082 3.95828 11.3499 3.89995 11.2249 3.77495L9.5582 2.10828C9.31654 1.86662 9.31654 1.46662 9.5582 1.22495C9.79987 0.983285 10.1999 0.983285 10.4415 1.22495L12.1082 2.89162C12.3499 3.13328 12.3499 3.53328 12.1082 3.77495C11.9832 3.89995 11.8249 3.95828 11.6665 3.95828Z" fill="#2D2D2D"/>
<path d="M13.3333 18.9583H6.66667C1.875 18.9583 1.875 16.4167 1.875 14.1667V13.3333C1.875 11.475 1.875 9.375 5.83333 9.375C6.825 9.375 7.19167 9.61667 7.70833 10C7.73333 10.025 7.76667 10.0417 7.79167 10.075L8.64167 10.975C9.35833 11.7333 10.6583 11.7333 11.375 10.975L12.225 10.075C12.25 10.05 12.275 10.025 12.3083 10C12.825 9.60833 13.1917 9.375 14.1833 9.375C18.1417 9.375 18.1417 11.475 18.1417 13.3333V14.1667C18.125 17.35 16.5167 18.9583 13.3333 18.9583ZM5.83333 10.625C3.125 10.625 3.125 11.475 3.125 13.3333V14.1667C3.125 16.45 3.125 17.7083 6.66667 17.7083H13.3333C15.8167 17.7083 16.875 16.65 16.875 14.1667V13.3333C16.875 11.475 16.875 10.625 14.1667 10.625C13.5667 10.625 13.4417 10.7 13.0833 10.9667L12.275 11.825C11.675 12.4583 10.8667 12.8083 10 12.8083C9.13333 12.8083 8.325 12.4583 7.725 11.825L6.91667 10.9667C6.55833 10.7 6.43333 10.625 5.83333 10.625Z" fill="#2D2D2D"/>
<path d="M4.16699 10.6251C3.82533 10.6251 3.54199 10.3418 3.54199 10.0001V8.33343C3.54199 6.71677 3.54199 4.70843 6.60866 4.41677C6.94199 4.3751 7.25866 4.63343 7.29199 4.98343C7.32533 5.3251 7.07533 5.63343 6.72533 5.66677C4.79199 5.84177 4.79199 6.6251 4.79199 8.33343V10.0001C4.79199 10.3418 4.50866 10.6251 4.16699 10.6251Z" fill="#2D2D2D"/>
<path d="M15.8335 10.6251C15.4918 10.6251 15.2085 10.3418 15.2085 10.0001V8.33344C15.2085 6.6251 15.2085 5.84177 13.2752 5.65844C12.9335 5.6251 12.6835 5.31677 12.7168 4.9751C12.7502 4.63344 13.0502 4.3751 13.4002 4.41677C16.4668 4.70844 16.4668 6.71677 16.4668 8.33344V10.0001C16.4585 10.3418 16.1752 10.6251 15.8335 10.6251Z" fill="#2D2D2D"/>
</svg>
