<svg width="327" height="20" viewBox="0 0 327 20" fill="none" xmlns="http://www.w3.org/2000/svg">
<path d="M12.2505 18.9584H7.75046C3.63379 18.9584 1.88379 17.2001 1.88379 13.0918V9.3501C1.88379 9.00843 2.16712 8.7251 2.50879 8.7251C2.85046 8.7251 3.13379 9.00843 3.13379 9.3501V13.0918C3.13379 16.5001 4.34212 17.7084 7.75046 17.7084H12.2421C15.6505 17.7084 16.8588 16.5001 16.8588 13.0918V9.3501C16.8588 9.00843 17.1421 8.7251 17.4838 8.7251C17.8255 8.7251 18.1088 9.00843 18.1088 9.3501V13.0918C18.1171 17.2001 16.3588 18.9584 12.2505 18.9584Z" fill="#0C68F4"/>
<path d="M10.0002 10.6251C9.0835 10.6251 8.25016 10.2667 7.6585 9.60841C7.06683 8.95008 6.79183 8.09175 6.8835 7.17508L7.44183 1.60841C7.47516 1.29175 7.74183 1.04175 8.06683 1.04175H11.9585C12.2835 1.04175 12.5502 1.28341 12.5835 1.60841L13.1418 7.17508C13.2335 8.09175 12.9585 8.95008 12.3668 9.60841C11.7502 10.2667 10.9168 10.6251 10.0002 10.6251ZM8.62516 2.29175L8.12516 7.30008C8.06683 7.85841 8.2335 8.38341 8.5835 8.76675C9.29183 9.55008 10.7085 9.55008 11.4168 8.76675C11.7668 8.37508 11.9335 7.85008 11.8752 7.30008L11.3752 2.29175H8.62516Z" fill="#0C68F4"/>
<path d="M15.258 10.6251C13.5663 10.6251 12.058 9.25841 11.883 7.57508L11.2997 1.73341C11.283 1.55841 11.3413 1.38341 11.458 1.25008C11.5747 1.11675 11.7413 1.04175 11.9247 1.04175H14.4663C16.9163 1.04175 18.058 2.06675 18.3997 4.58341L18.633 6.90008C18.733 7.88341 18.433 8.81675 17.7913 9.52508C17.1497 10.2334 16.2497 10.6251 15.258 10.6251ZM12.6163 2.29175L13.133 7.45008C13.2413 8.49175 14.208 9.37508 15.258 9.37508C15.8913 9.37508 16.458 9.13342 16.8663 8.69175C17.2663 8.25008 17.4497 7.65841 17.3913 7.02508L17.158 4.73341C16.8997 2.85008 16.2913 2.29175 14.4663 2.29175H12.6163Z" fill="#0C68F4"/>
<path d="M4.69953 10.6251C3.70786 10.6251 2.80786 10.2334 2.1662 9.52508C1.52453 8.81675 1.22453 7.88341 1.32453 6.90008L1.54953 4.60841C1.89953 2.06675 3.0412 1.04175 5.4912 1.04175H8.03286C8.20786 1.04175 8.37453 1.11675 8.49953 1.25008C8.62453 1.38341 8.67453 1.55841 8.65786 1.73341L8.07453 7.57508C7.89953 9.25841 6.3912 10.6251 4.69953 10.6251ZM5.4912 2.29175C3.6662 2.29175 3.05786 2.84175 2.7912 4.75008L2.5662 7.02508C2.49953 7.65841 2.6912 8.25008 3.0912 8.69175C3.4912 9.13342 4.05786 9.37508 4.69953 9.37508C5.74953 9.37508 6.72453 8.49175 6.82453 7.45008L7.3412 2.29175H5.4912Z" fill="#0C68F4"/>
<path d="M12.0837 18.9584H7.91699C7.57533 18.9584 7.29199 18.6751 7.29199 18.3334V16.2501C7.29199 14.5001 8.25033 13.5417 10.0003 13.5417C11.7503 13.5417 12.7087 14.5001 12.7087 16.2501V18.3334C12.7087 18.6751 12.4253 18.9584 12.0837 18.9584ZM8.54199 17.7084H11.4587V16.2501C11.4587 15.2001 11.0503 14.7917 10.0003 14.7917C8.95033 14.7917 8.54199 15.2001 8.54199 16.2501V17.7084Z" fill="#0C68F4"/>
<path d="M26.2756 5.77273V14.5H24.9588V5.77273H26.2756ZM29.3651 10.6136V14.5H28.0909V7.95455H29.3139V9.01989H29.3949C29.5455 8.6733 29.7813 8.39489 30.1023 8.18466C30.4261 7.97443 30.8338 7.86932 31.3253 7.86932C31.7713 7.86932 32.1619 7.96307 32.4972 8.15057C32.8324 8.33523 33.0923 8.6108 33.277 8.97727C33.4616 9.34375 33.554 9.79687 33.554 10.3366V14.5H32.2798V10.4901C32.2798 10.0156 32.1563 9.64489 31.9091 9.37784C31.6619 9.10795 31.3224 8.97301 30.8906 8.97301C30.5952 8.97301 30.3324 9.03693 30.1023 9.16477C29.875 9.29261 29.6946 9.48011 29.5611 9.72727C29.4304 9.97159 29.3651 10.267 29.3651 10.6136ZM43.3008 8.06534C43.2553 7.66193 43.0678 7.34943 42.7383 7.12784C42.4087 6.90341 41.994 6.79119 41.494 6.79119C41.136 6.79119 40.8263 6.84801 40.565 6.96165C40.3036 7.07244 40.1005 7.22585 39.9556 7.42188C39.8136 7.61506 39.7425 7.83523 39.7425 8.08239C39.7425 8.28977 39.7908 8.46875 39.8874 8.61932C39.9869 8.76989 40.1161 8.89631 40.2752 8.99858C40.4371 9.09801 40.6104 9.18182 40.7951 9.25C40.9798 9.31534 41.1573 9.36932 41.3278 9.41193L42.18 9.63352C42.4585 9.7017 42.744 9.79403 43.0366 9.91051C43.3292 10.027 43.6005 10.1804 43.8505 10.3707C44.1005 10.5611 44.3022 10.7969 44.4556 11.0781C44.6119 11.3594 44.69 11.696 44.69 12.0881C44.69 12.5824 44.5621 13.0213 44.3065 13.4048C44.0536 13.7884 43.6857 14.0909 43.2028 14.3125C42.7227 14.5341 42.1417 14.6449 41.4599 14.6449C40.8065 14.6449 40.2411 14.5412 39.7638 14.3338C39.2866 14.1264 38.913 13.8324 38.6431 13.4517C38.3732 13.0682 38.2241 12.6136 38.1957 12.0881H39.5167C39.5423 12.4034 39.6445 12.6662 39.8235 12.8764C40.0053 13.0838 40.2369 13.2386 40.5181 13.3409C40.8022 13.4403 41.1133 13.4901 41.4513 13.4901C41.8235 13.4901 42.1545 13.4318 42.4442 13.3153C42.7369 13.196 42.967 13.0312 43.1346 12.821C43.3022 12.608 43.386 12.3594 43.386 12.0753C43.386 11.8168 43.3121 11.6051 43.1644 11.4403C43.0195 11.2756 42.8221 11.1392 42.5721 11.0312C42.3249 10.9233 42.0451 10.8281 41.7326 10.7457L40.7013 10.4645C40.0025 10.2741 39.4485 9.99432 39.0394 9.625C38.6332 9.25568 38.43 8.76705 38.43 8.15909C38.43 7.65625 38.5664 7.21733 38.8391 6.84233C39.1119 6.46733 39.4812 6.17614 39.9471 5.96875C40.413 5.75852 40.9386 5.65341 41.5238 5.65341C42.1147 5.65341 42.636 5.7571 43.0877 5.96449C43.5423 6.17188 43.9002 6.45739 44.1616 6.82102C44.4229 7.18182 44.5593 7.59659 44.5707 8.06534H43.3008ZM49.2166 7.95455V8.97727H45.6413V7.95455H49.2166ZM46.6001 6.38636H47.8743V12.5781C47.8743 12.8253 47.9112 13.0114 47.9851 13.1364C48.0589 13.2585 48.1541 13.3423 48.2706 13.3878C48.3899 13.4304 48.5192 13.4517 48.6584 13.4517C48.7607 13.4517 48.8501 13.4446 48.9268 13.4304C49.0036 13.4162 49.0632 13.4048 49.1058 13.3963L49.3359 14.4489C49.2621 14.4773 49.157 14.5057 49.0206 14.5341C48.8842 14.5653 48.7138 14.5824 48.5092 14.5852C48.174 14.5909 47.8615 14.5312 47.5717 14.4062C47.282 14.2812 47.0476 14.0881 46.8686 13.8267C46.6896 13.5653 46.6001 13.2372 46.6001 12.8423V6.38636ZM53.3129 14.6321C52.6992 14.6321 52.1637 14.4915 51.7063 14.2102C51.2489 13.929 50.8938 13.5355 50.641 13.0298C50.3881 12.5241 50.2617 11.9332 50.2617 11.2571C50.2617 10.5781 50.3881 9.98437 50.641 9.47585C50.8938 8.96733 51.2489 8.57244 51.7063 8.29119C52.1637 8.00994 52.6992 7.86932 53.3129 7.86932C53.9265 7.86932 54.462 8.00994 54.9194 8.29119C55.3768 8.57244 55.7319 8.96733 55.9847 9.47585C56.2376 9.98437 56.364 10.5781 56.364 11.2571C56.364 11.9332 56.2376 12.5241 55.9847 13.0298C55.7319 13.5355 55.3768 13.929 54.9194 14.2102C54.462 14.4915 53.9265 14.6321 53.3129 14.6321ZM53.3171 13.5625C53.7148 13.5625 54.0444 13.4574 54.3058 13.2472C54.5671 13.0369 54.7603 12.7571 54.8853 12.4077C55.0131 12.0582 55.0771 11.6733 55.0771 11.2528C55.0771 10.8352 55.0131 10.4517 54.8853 10.1023C54.7603 9.75 54.5671 9.46733 54.3058 9.25426C54.0444 9.04119 53.7148 8.93466 53.3171 8.93466C52.9165 8.93466 52.5842 9.04119 52.32 9.25426C52.0586 9.46733 51.864 9.75 51.7362 10.1023C51.6112 10.4517 51.5487 10.8352 51.5487 11.2528C51.5487 11.6733 51.6112 12.0582 51.7362 12.4077C51.864 12.7571 52.0586 13.0369 52.32 13.2472C52.5842 13.4574 52.9165 13.5625 53.3171 13.5625ZM60.5433 14.6321C59.9098 14.6321 59.3643 14.4886 58.907 14.2017C58.4524 13.9119 58.103 13.5128 57.8587 13.0043C57.6143 12.4957 57.4922 11.9134 57.4922 11.2571C57.4922 10.5923 57.6172 10.0057 57.8672 9.49716C58.1172 8.9858 58.4695 8.58665 58.924 8.29972C59.3786 8.01278 59.9141 7.86932 60.5305 7.86932C61.0277 7.86932 61.4709 7.96165 61.8601 8.14631C62.2493 8.32812 62.5632 8.58381 62.8018 8.91335C63.0433 9.2429 63.1868 9.62784 63.2322 10.0682H61.9922C61.924 9.76136 61.7678 9.49716 61.5234 9.27557C61.282 9.05398 60.9581 8.94318 60.5518 8.94318C60.1967 8.94318 59.8857 9.03693 59.6186 9.22443C59.3544 9.40909 59.1484 9.6733 59.0007 10.017C58.853 10.358 58.7791 10.7614 58.7791 11.2273C58.7791 11.7045 58.8516 12.1165 58.9964 12.4631C59.1413 12.8097 59.3459 13.0781 59.6101 13.2685C59.8771 13.4588 60.1911 13.554 60.5518 13.554C60.7933 13.554 61.0121 13.5099 61.2081 13.4219C61.407 13.331 61.5732 13.2017 61.7067 13.0341C61.843 12.8665 61.9382 12.6648 61.9922 12.429H63.2322C63.1868 12.8523 63.049 13.2301 62.8189 13.5625C62.5888 13.8949 62.2805 14.1562 61.8942 14.3466C61.5107 14.5369 61.0604 14.6321 60.5433 14.6321ZM65.7667 12.2798L65.7582 10.7244H65.9798L68.5877 7.95455H70.1133L67.1388 11.108H66.9386L65.7667 12.2798ZM64.5948 14.5V5.77273H65.869V14.5H64.5948ZM68.7283 14.5L66.3846 11.3892L67.2624 10.4986L70.2923 14.5H68.7283Z" fill="#717171"/>
<path d="M111.992 12.6416C111.825 12.6416 111.667 12.5749 111.55 12.4582L109.534 10.4416C109.292 10.1999 109.292 9.7999 109.534 9.55824C109.775 9.31657 110.175 9.31657 110.417 9.55824L111.992 11.1332L115.575 7.5499C115.817 7.30824 116.217 7.30824 116.459 7.5499C116.7 7.79157 116.7 8.19157 116.459 8.43324L112.434 12.4582C112.317 12.5749 112.159 12.6416 111.992 12.6416Z" fill="#0C68F4"/>
<path d="M113 18.9584C112.475 18.9584 111.95 18.7834 111.542 18.4334L110.225 17.3001C110.092 17.1834 109.758 17.0667 109.583 17.0667H108.15C106.917 17.0667 105.917 16.0667 105.917 14.8334V13.4084C105.917 13.2334 105.8 12.9084 105.683 12.7751L104.558 11.4501C103.875 10.6417 103.875 9.36675 104.558 8.55842L105.683 7.23342C105.8 7.10008 105.917 6.77508 105.917 6.60008V5.16675C105.917 3.93341 106.917 2.93341 108.15 2.93341H109.592C109.767 2.93341 110.1 2.80841 110.233 2.70008L111.55 1.56675C112.367 0.866748 113.642 0.866748 114.458 1.56675L115.775 2.70008C115.908 2.81675 116.242 2.93341 116.417 2.93341H117.833C119.067 2.93341 120.067 3.93341 120.067 5.16675V6.58342C120.067 6.75842 120.192 7.09175 120.308 7.22508L121.442 8.54175C122.142 9.35841 122.142 10.6334 121.442 11.4501L120.308 12.7667C120.192 12.9001 120.067 13.2334 120.067 13.4084V14.8251C120.067 16.0584 119.067 17.0584 117.833 17.0584H116.417C116.242 17.0584 115.908 17.1834 115.775 17.2917L114.458 18.4251C114.05 18.7834 113.525 18.9584 113 18.9584ZM108.15 4.18341C107.608 4.18341 107.167 4.62508 107.167 5.16675V6.59175C107.167 7.06675 106.942 7.67508 106.633 8.03342L105.508 9.35841C105.217 9.70008 105.217 10.2917 105.508 10.6334L106.633 11.9584C106.942 12.3251 107.167 12.9251 107.167 13.4001V14.8251C107.167 15.3667 107.608 15.8084 108.15 15.8084H109.592C110.075 15.8084 110.683 16.0334 111.05 16.3501L112.367 17.4834C112.708 17.7751 113.308 17.7751 113.65 17.4834L114.967 16.3501C115.333 16.0417 115.942 15.8084 116.425 15.8084H117.842C118.383 15.8084 118.825 15.3667 118.825 14.8251V13.4084C118.825 12.9251 119.05 12.3167 119.367 11.9501L120.5 10.6334C120.792 10.2917 120.792 9.69175 120.5 9.35008L119.367 8.03342C119.05 7.66675 118.825 7.05841 118.825 6.57508V5.16675C118.825 4.62508 118.383 4.18341 117.842 4.18341H116.425C115.942 4.18341 115.333 3.95841 114.967 3.64175L113.65 2.50841C113.308 2.21675 112.708 2.21675 112.367 2.50841L111.05 3.65008C110.683 3.95842 110.067 4.18341 109.592 4.18341H108.15Z" fill="#0C68F4"/>
<path d="M133.865 8.52983C133.783 8.27131 133.672 8.03977 133.533 7.83523C133.396 7.62784 133.233 7.4517 133.043 7.30682C132.852 7.15909 132.635 7.04687 132.391 6.97017C132.149 6.89347 131.884 6.85511 131.594 6.85511C131.102 6.85511 130.659 6.98153 130.264 7.23438C129.869 7.48722 129.557 7.85795 129.327 8.34659C129.099 8.83239 128.986 9.42756 128.986 10.1321C128.986 10.8395 129.101 11.4375 129.331 11.9261C129.561 12.4148 129.876 12.7855 130.277 13.0384C130.678 13.2912 131.134 13.4176 131.645 13.4176C132.119 13.4176 132.533 13.321 132.885 13.1278C133.24 12.9347 133.514 12.6619 133.707 12.3097C133.903 11.9545 134.001 11.5369 134.001 11.0568L134.342 11.1207H131.845V10.0341H135.276V11.027C135.276 11.7599 135.119 12.3963 134.807 12.9361C134.497 13.473 134.068 13.8878 133.52 14.1804C132.974 14.473 132.349 14.6193 131.645 14.6193C130.855 14.6193 130.162 14.4375 129.565 14.0739C128.972 13.7102 128.509 13.1946 128.176 12.527C127.844 11.8565 127.678 11.0611 127.678 10.1406C127.678 9.4446 127.774 8.8196 127.967 8.26562C128.161 7.71165 128.432 7.24148 128.781 6.85511C129.134 6.46591 129.547 6.16903 130.021 5.96449C130.499 5.7571 131.02 5.65341 131.585 5.65341C132.057 5.65341 132.496 5.72301 132.902 5.86222C133.311 6.00142 133.675 6.19886 133.993 6.45455C134.314 6.71023 134.58 7.0142 134.79 7.36648C135 7.71591 135.142 8.10369 135.216 8.52983H133.865ZM140.991 11.7855V7.95455H142.27V14.5H141.017V13.3665H140.949C140.798 13.7159 140.556 14.0071 140.224 14.2401C139.895 14.4702 139.484 14.5852 138.993 14.5852C138.572 14.5852 138.2 14.4929 137.876 14.3082C137.555 14.1207 137.302 13.8438 137.118 13.4773C136.936 13.1108 136.845 12.6577 136.845 12.1179V7.95455H138.119V11.9645C138.119 12.4105 138.243 12.7656 138.49 13.0298C138.737 13.294 139.058 13.4261 139.453 13.4261C139.691 13.4261 139.929 13.3665 140.164 13.2472C140.403 13.1278 140.6 12.9474 140.757 12.706C140.916 12.4645 140.994 12.1577 140.991 11.7855ZM145.886 14.6449C145.472 14.6449 145.097 14.5682 144.761 14.4148C144.426 14.2585 144.161 14.0327 143.964 13.7372C143.771 13.4418 143.675 13.0795 143.675 12.6506C143.675 12.2812 143.746 11.9773 143.888 11.7386C144.03 11.5 144.222 11.3111 144.463 11.1719C144.705 11.0327 144.974 10.9276 145.273 10.8565C145.571 10.7855 145.875 10.7315 146.185 10.6946C146.577 10.6491 146.895 10.6122 147.139 10.5838C147.384 10.5526 147.561 10.5028 147.672 10.4347C147.783 10.3665 147.838 10.2557 147.838 10.1023V10.0724C147.838 9.70028 147.733 9.41193 147.523 9.20739C147.315 9.00284 147.006 8.90057 146.594 8.90057C146.165 8.90057 145.827 8.99574 145.58 9.18608C145.335 9.37358 145.166 9.58239 145.072 9.8125L143.875 9.53977C144.017 9.14205 144.224 8.82102 144.497 8.5767C144.773 8.32955 145.089 8.15057 145.447 8.03977C145.805 7.92614 146.182 7.86932 146.577 7.86932C146.838 7.86932 147.115 7.90057 147.408 7.96307C147.703 8.02273 147.979 8.13352 148.234 8.29545C148.493 8.45739 148.705 8.68892 148.869 8.99006C149.034 9.28835 149.116 9.67614 149.116 10.1534V14.5H147.872V13.6051H147.821C147.739 13.7699 147.615 13.9318 147.45 14.0909C147.286 14.25 147.074 14.3821 146.815 14.4872C146.557 14.5923 146.247 14.6449 145.886 14.6449ZM146.163 13.6222C146.516 13.6222 146.817 13.5526 147.067 13.4134C147.32 13.2741 147.511 13.0923 147.642 12.8679C147.776 12.6406 147.842 12.3977 147.842 12.1392V11.2955C147.797 11.3409 147.709 11.3835 147.578 11.4233C147.45 11.4602 147.304 11.4929 147.139 11.5213C146.974 11.5469 146.814 11.571 146.658 11.5938C146.501 11.6136 146.371 11.6307 146.266 11.6449C146.018 11.6761 145.793 11.7287 145.588 11.8026C145.386 11.8764 145.224 11.983 145.102 12.1222C144.983 12.2585 144.923 12.4403 144.923 12.6676C144.923 12.983 145.04 13.2216 145.273 13.3835C145.506 13.5426 145.803 13.6222 146.163 13.6222ZM150.814 14.5V7.95455H152.045V8.99432H152.113C152.233 8.64205 152.443 8.36506 152.744 8.16335C153.048 7.95881 153.392 7.85653 153.775 7.85653C153.855 7.85653 153.949 7.85937 154.056 7.86506C154.167 7.87074 154.254 7.87784 154.316 7.88636V9.10511C154.265 9.09091 154.174 9.07528 154.044 9.05824C153.913 9.03835 153.782 9.02841 153.652 9.02841C153.35 9.02841 153.082 9.09233 152.846 9.22017C152.613 9.34517 152.429 9.51989 152.292 9.74432C152.156 9.96591 152.088 10.2187 152.088 10.5028V14.5H150.814ZM157.265 14.6449C156.85 14.6449 156.475 14.5682 156.14 14.4148C155.805 14.2585 155.539 14.0327 155.343 13.7372C155.15 13.4418 155.054 13.0795 155.054 12.6506C155.054 12.2812 155.125 11.9773 155.267 11.7386C155.409 11.5 155.6 11.3111 155.842 11.1719C156.083 11.0327 156.353 10.9276 156.652 10.8565C156.95 10.7855 157.254 10.7315 157.564 10.6946C157.956 10.6491 158.274 10.6122 158.518 10.5838C158.762 10.5526 158.94 10.5028 159.051 10.4347C159.162 10.3665 159.217 10.2557 159.217 10.1023V10.0724C159.217 9.70028 159.112 9.41193 158.902 9.20739C158.694 9.00284 158.385 8.90057 157.973 8.90057C157.544 8.90057 157.206 8.99574 156.958 9.18608C156.714 9.37358 156.545 9.58239 156.451 9.8125L155.254 9.53977C155.396 9.14205 155.603 8.82102 155.876 8.5767C156.152 8.32955 156.468 8.15057 156.826 8.03977C157.184 7.92614 157.561 7.86932 157.956 7.86932C158.217 7.86932 158.494 7.90057 158.787 7.96307C159.082 8.02273 159.358 8.13352 159.613 8.29545C159.872 8.45739 160.083 8.68892 160.248 8.99006C160.413 9.28835 160.495 9.67614 160.495 10.1534V14.5H159.251V13.6051H159.2C159.118 13.7699 158.994 13.9318 158.829 14.0909C158.664 14.25 158.453 14.3821 158.194 14.4872C157.936 14.5923 157.626 14.6449 157.265 14.6449ZM157.542 13.6222C157.895 13.6222 158.196 13.5526 158.446 13.4134C158.699 13.2741 158.89 13.0923 159.021 12.8679C159.154 12.6406 159.221 12.3977 159.221 12.1392V11.2955C159.176 11.3409 159.088 11.3835 158.957 11.4233C158.829 11.4602 158.683 11.4929 158.518 11.5213C158.353 11.5469 158.193 11.571 158.037 11.5938C157.88 11.6136 157.75 11.6307 157.645 11.6449C157.397 11.6761 157.172 11.7287 156.967 11.8026C156.765 11.8764 156.603 11.983 156.481 12.1222C156.362 12.2585 156.302 12.4403 156.302 12.6676C156.302 12.983 156.419 13.2216 156.652 13.3835C156.885 13.5426 157.181 13.6222 157.542 13.6222ZM163.467 10.6136V14.5H162.192V7.95455H163.415V9.01989H163.496C163.647 8.6733 163.883 8.39489 164.204 8.18466C164.528 7.97443 164.935 7.86932 165.427 7.86932C165.873 7.86932 166.263 7.96307 166.599 8.15057C166.934 8.33523 167.194 8.6108 167.379 8.97727C167.563 9.34375 167.656 9.79687 167.656 10.3366V14.5H166.381V10.4901C166.381 10.0156 166.258 9.64489 166.011 9.37784C165.763 9.10795 165.424 8.97301 164.992 8.97301C164.697 8.97301 164.434 9.03693 164.204 9.16477C163.977 9.29261 163.796 9.48011 163.663 9.72727C163.532 9.97159 163.467 10.267 163.467 10.6136ZM172.42 7.95455V8.97727H168.844V7.95455H172.42ZM169.803 6.38636H171.077V12.5781C171.077 12.8253 171.114 13.0114 171.188 13.1364C171.262 13.2585 171.357 13.3423 171.474 13.3878C171.593 13.4304 171.722 13.4517 171.862 13.4517C171.964 13.4517 172.053 13.4446 172.13 13.4304C172.207 13.4162 172.266 13.4048 172.309 13.3963L172.539 14.4489C172.465 14.4773 172.36 14.5057 172.224 14.5341C172.087 14.5653 171.917 14.5824 171.712 14.5852C171.377 14.5909 171.065 14.5312 170.775 14.4062C170.485 14.2812 170.251 14.0881 170.072 13.8267C169.893 13.5653 169.803 13.2372 169.803 12.8423V6.38636ZM176.58 14.6321C175.935 14.6321 175.38 14.4943 174.914 14.2188C174.451 13.9403 174.093 13.5497 173.84 13.0469C173.59 12.5412 173.465 11.9489 173.465 11.2699C173.465 10.5994 173.59 10.0085 173.84 9.49716C174.093 8.9858 174.445 8.58665 174.897 8.29972C175.351 8.01278 175.882 7.86932 176.49 7.86932C176.86 7.86932 177.218 7.9304 177.564 8.05256C177.911 8.17472 178.222 8.36648 178.498 8.62784C178.773 8.8892 178.99 9.22869 179.15 9.64631C179.309 10.0611 179.388 10.5653 179.388 11.1591V11.6108H174.185V10.6562H178.14C178.14 10.321 178.071 10.0241 177.935 9.76562C177.799 9.50426 177.607 9.2983 177.36 9.14773C177.115 8.99716 176.828 8.92188 176.499 8.92188C176.141 8.92188 175.828 9.00994 175.561 9.18608C175.297 9.35937 175.093 9.58665 174.948 9.8679C174.806 10.1463 174.735 10.4489 174.735 10.7756V11.5213C174.735 11.9588 174.811 12.331 174.965 12.6378C175.121 12.9446 175.338 13.179 175.617 13.3409C175.895 13.5 176.221 13.5795 176.593 13.5795C176.834 13.5795 177.054 13.5455 177.253 13.4773C177.452 13.4062 177.624 13.3011 177.769 13.1619C177.914 13.0227 178.025 12.8509 178.101 12.6463L179.307 12.8636C179.211 13.2187 179.037 13.5298 178.787 13.7969C178.54 14.0611 178.229 14.267 177.854 14.4148C177.482 14.5597 177.057 14.6321 176.58 14.6321ZM183.623 14.6321C182.978 14.6321 182.423 14.4943 181.957 14.2188C181.494 13.9403 181.136 13.5497 180.883 13.0469C180.633 12.5412 180.508 11.9489 180.508 11.2699C180.508 10.5994 180.633 10.0085 180.883 9.49716C181.136 8.9858 181.488 8.58665 181.94 8.29972C182.394 8.01278 182.925 7.86932 183.533 7.86932C183.903 7.86932 184.261 7.9304 184.607 8.05256C184.954 8.17472 185.265 8.36648 185.54 8.62784C185.816 8.8892 186.033 9.22869 186.192 9.64631C186.352 10.0611 186.431 10.5653 186.431 11.1591V11.6108H181.228V10.6562H185.183C185.183 10.321 185.114 10.0241 184.978 9.76562C184.842 9.50426 184.65 9.2983 184.403 9.14773C184.158 8.99716 183.871 8.92188 183.542 8.92188C183.184 8.92188 182.871 9.00994 182.604 9.18608C182.34 9.35937 182.136 9.58665 181.991 9.8679C181.849 10.1463 181.778 10.4489 181.778 10.7756V11.5213C181.778 11.9588 181.854 12.331 182.008 12.6378C182.164 12.9446 182.381 13.179 182.66 13.3409C182.938 13.5 183.263 13.5795 183.636 13.5795C183.877 13.5795 184.097 13.5455 184.296 13.4773C184.495 13.4062 184.667 13.3011 184.812 13.1619C184.957 13.0227 185.067 12.8509 185.144 12.6463L186.35 12.8636C186.254 13.2187 186.08 13.5298 185.83 13.7969C185.583 14.0611 185.272 14.267 184.897 14.4148C184.525 14.5597 184.1 14.6321 183.623 14.6321ZM190.295 14.6278C189.767 14.6278 189.295 14.4929 188.88 14.223C188.468 13.9503 188.145 13.5625 187.909 13.0597C187.676 12.554 187.559 11.9474 187.559 11.2401C187.559 10.5327 187.677 9.92756 187.913 9.42472C188.152 8.92187 188.478 8.53693 188.893 8.26989C189.308 8.00284 189.778 7.86932 190.304 7.86932C190.71 7.86932 191.037 7.9375 191.284 8.07386C191.534 8.20739 191.727 8.36364 191.863 8.54261C192.002 8.72159 192.11 8.87926 192.187 9.01562H192.264V5.77273H193.538V14.5H192.294V13.4815H192.187C192.11 13.6207 192 13.7798 191.855 13.9588C191.713 14.1378 191.517 14.294 191.267 14.4276C191.017 14.5611 190.693 14.6278 190.295 14.6278ZM190.576 13.5412C190.943 13.5412 191.252 13.4446 191.505 13.2514C191.761 13.0554 191.954 12.7841 192.085 12.4375C192.218 12.0909 192.285 11.6875 192.285 11.2273C192.285 10.7727 192.22 10.375 192.089 10.0341C191.958 9.69318 191.767 9.42756 191.514 9.23722C191.261 9.04687 190.949 8.9517 190.576 8.9517C190.193 8.9517 189.873 9.05114 189.618 9.25C189.362 9.44886 189.169 9.72017 189.038 10.0639C188.91 10.4077 188.846 10.7955 188.846 11.2273C188.846 11.6648 188.912 12.0582 189.042 12.4077C189.173 12.7571 189.366 13.0341 189.622 13.2386C189.88 13.4403 190.199 13.5412 190.576 13.5412Z" fill="#717171"/>
<path d="M237.834 12.2917H228.667C228.325 12.2917 228.042 12.0084 228.042 11.6667V5.00008C228.042 2.81675 229.817 1.04175 232 1.04175H239.5C239.842 1.04175 240.125 1.32508 240.125 1.66675V10.0001C240.125 11.2667 239.1 12.2917 237.834 12.2917ZM229.292 11.0417H237.834C238.409 11.0417 238.875 10.5751 238.875 10.0001V2.29175H232C230.509 2.29175 229.292 3.50841 229.292 5.00008V11.0417Z" fill="#0C68F4"/>
<path d="M242.834 17.2917H242C241.659 17.2917 241.375 17.0084 241.375 16.6667C241.375 16.0917 240.909 15.6251 240.334 15.6251C239.759 15.6251 239.292 16.0917 239.292 16.6667C239.292 17.0084 239.009 17.2917 238.667 17.2917H235.334C234.992 17.2917 234.709 17.0084 234.709 16.6667C234.709 16.0917 234.242 15.6251 233.667 15.6251C233.092 15.6251 232.625 16.0917 232.625 16.6667C232.625 17.0084 232.342 17.2917 232 17.2917H231.167C229.442 17.2917 228.042 15.8917 228.042 14.1667V11.6667C228.042 11.3251 228.325 11.0417 228.667 11.0417H237.834C238.409 11.0417 238.875 10.5751 238.875 10.0001V4.16675C238.875 3.82508 239.159 3.54175 239.5 3.54175H241.034C241.859 3.54175 242.617 3.98343 243.025 4.70009L244.45 7.19175C244.559 7.38342 244.559 7.62508 244.45 7.81675C244.342 8.00842 244.134 8.12508 243.909 8.12508H242.834C242.717 8.12508 242.625 8.21675 242.625 8.33341V10.8334C242.625 10.9501 242.717 11.0417 242.834 11.0417H245.334C245.675 11.0417 245.959 11.3251 245.959 11.6667V14.1667C245.959 15.8917 244.559 17.2917 242.834 17.2917ZM242.542 16.0417H242.834C243.867 16.0417 244.709 15.2001 244.709 14.1667V12.2917H242.834C242.034 12.2917 241.375 11.6334 241.375 10.8334V8.33341C241.375 7.53341 242.025 6.87508 242.834 6.87508L241.942 5.31675C241.759 4.99175 241.409 4.79175 241.034 4.79175H240.125V10.0001C240.125 11.2667 239.1 12.2917 237.834 12.2917H229.292V14.1667C229.292 15.2001 230.134 16.0417 231.167 16.0417H231.459C231.734 15.0834 232.617 14.3751 233.667 14.3751C234.717 14.3751 235.6 15.0834 235.875 16.0417H238.134C238.409 15.0834 239.292 14.3751 240.342 14.3751C241.392 14.3751 242.267 15.0834 242.542 16.0417Z" fill="#0C68F4"/>
<path d="M233.667 18.9583C232.4 18.9583 231.375 17.9333 231.375 16.6667C231.375 15.4 232.4 14.375 233.667 14.375C234.933 14.375 235.958 15.4 235.958 16.6667C235.958 17.9333 234.933 18.9583 233.667 18.9583ZM233.667 15.625C233.092 15.625 232.625 16.0917 232.625 16.6667C232.625 17.2417 233.092 17.7083 233.667 17.7083C234.242 17.7083 234.708 17.2417 234.708 16.6667C234.708 16.0917 234.242 15.625 233.667 15.625Z" fill="#0C68F4"/>
<path d="M240.334 18.9583C239.067 18.9583 238.042 17.9333 238.042 16.6667C238.042 15.4 239.067 14.375 240.334 14.375C241.6 14.375 242.625 15.4 242.625 16.6667C242.625 17.9333 241.6 18.9583 240.334 18.9583ZM240.334 15.625C239.759 15.625 239.292 16.0917 239.292 16.6667C239.292 17.2417 239.759 17.7083 240.334 17.7083C240.909 17.7083 241.375 17.2417 241.375 16.6667C241.375 16.0917 240.909 15.625 240.334 15.625Z" fill="#0C68F4"/>
<path d="M245.333 12.2917H242.833C242.033 12.2917 241.375 11.6333 241.375 10.8333V8.33333C241.375 7.53333 242.033 6.875 242.833 6.875H243.908C244.133 6.875 244.342 6.99167 244.45 7.19167L245.875 9.69167C245.925 9.78334 245.958 9.89167 245.958 10V11.6667C245.958 12.0083 245.675 12.2917 245.333 12.2917ZM242.833 8.125C242.717 8.125 242.625 8.21667 242.625 8.33333V10.8333C242.625 10.95 242.717 11.0417 242.833 11.0417H244.708V10.1667L243.542 8.125H242.833Z" fill="#0C68F4"/>
<path d="M251.959 14.5V5.77273H257.371V6.90625H253.276V9.56534H256.983V10.6946H253.276V14.5H251.959ZM258.806 14.5V7.95455H260.037V8.99432H260.105C260.225 8.64205 260.435 8.36506 260.736 8.16335C261.04 7.95881 261.384 7.85653 261.767 7.85653C261.847 7.85653 261.941 7.85937 262.049 7.86506C262.159 7.87074 262.246 7.87784 262.309 7.88636V9.10511C262.257 9.09091 262.167 9.07528 262.036 9.05824C261.905 9.03835 261.775 9.02841 261.644 9.02841C261.343 9.02841 261.074 9.09233 260.838 9.22017C260.605 9.34517 260.421 9.51989 260.284 9.74432C260.148 9.96591 260.08 10.2187 260.08 10.5028V14.5H258.806ZM265.998 14.6321C265.353 14.6321 264.798 14.4943 264.332 14.2188C263.869 13.9403 263.511 13.5497 263.258 13.0469C263.008 12.5412 262.883 11.9489 262.883 11.2699C262.883 10.5994 263.008 10.0085 263.258 9.49716C263.511 8.9858 263.863 8.58665 264.315 8.29972C264.769 8.01278 265.3 7.86932 265.908 7.86932C266.278 7.86932 266.636 7.9304 266.982 8.05256C267.329 8.17472 267.64 8.36648 267.915 8.62784C268.191 8.8892 268.408 9.22869 268.567 9.64631C268.727 10.0611 268.806 10.5653 268.806 11.1591V11.6108H263.603V10.6562H267.558C267.558 10.321 267.489 10.0241 267.353 9.76562C267.217 9.50426 267.025 9.2983 266.778 9.14773C266.533 8.99716 266.246 8.92188 265.917 8.92188C265.559 8.92188 265.246 9.00994 264.979 9.18608C264.715 9.35937 264.511 9.58665 264.366 9.8679C264.224 10.1463 264.153 10.4489 264.153 10.7756V11.5213C264.153 11.9588 264.229 12.331 264.383 12.6378C264.539 12.9446 264.756 13.179 265.035 13.3409C265.313 13.5 265.638 13.5795 266.011 13.5795C266.252 13.5795 266.472 13.5455 266.671 13.4773C266.87 13.4062 267.042 13.3011 267.187 13.1619C267.332 13.0227 267.442 12.8509 267.519 12.6463L268.725 12.8636C268.629 13.2187 268.455 13.5298 268.205 13.7969C267.958 14.0611 267.647 14.267 267.272 14.4148C266.9 14.5597 266.475 14.6321 265.998 14.6321ZM273.041 14.6321C272.396 14.6321 271.841 14.4943 271.375 14.2188C270.912 13.9403 270.554 13.5497 270.301 13.0469C270.051 12.5412 269.926 11.9489 269.926 11.2699C269.926 10.5994 270.051 10.0085 270.301 9.49716C270.554 8.9858 270.906 8.58665 271.358 8.29972C271.812 8.01278 272.343 7.86932 272.951 7.86932C273.321 7.86932 273.679 7.9304 274.025 8.05256C274.372 8.17472 274.683 8.36648 274.958 8.62784C275.234 8.8892 275.451 9.22869 275.61 9.64631C275.77 10.0611 275.849 10.5653 275.849 11.1591V11.6108H270.646V10.6562H274.6C274.6 10.321 274.532 10.0241 274.396 9.76562C274.26 9.50426 274.068 9.2983 273.821 9.14773C273.576 8.99716 273.289 8.92188 272.96 8.92188C272.602 8.92188 272.289 9.00994 272.022 9.18608C271.758 9.35937 271.554 9.58665 271.409 9.8679C271.267 10.1463 271.196 10.4489 271.196 10.7756V11.5213C271.196 11.9588 271.272 12.331 271.426 12.6378C271.582 12.9446 271.799 13.179 272.078 13.3409C272.356 13.5 272.681 13.5795 273.054 13.5795C273.295 13.5795 273.515 13.5455 273.714 13.4773C273.913 13.4062 274.085 13.3011 274.23 13.1619C274.375 13.0227 274.485 12.8509 274.562 12.6463L275.768 12.8636C275.672 13.2187 275.498 13.5298 275.248 13.7969C275.001 14.0611 274.69 14.267 274.315 14.4148C273.943 14.5597 273.518 14.6321 273.041 14.6321ZM283.366 14.5H280.541V5.77273H283.456C284.311 5.77273 285.045 5.94744 285.659 6.29688C286.272 6.64347 286.743 7.14205 287.069 7.79261C287.399 8.44034 287.564 9.21733 287.564 10.1236C287.564 11.0327 287.397 11.8139 287.065 12.4673C286.735 13.1207 286.258 13.6236 285.633 13.9759C285.008 14.3253 284.252 14.5 283.366 14.5ZM281.858 13.3494H283.294C283.958 13.3494 284.511 13.2244 284.951 12.9744C285.392 12.7216 285.721 12.3565 285.94 11.8793C286.159 11.3991 286.268 10.8139 286.268 10.1236C286.268 9.43892 286.159 8.85795 285.94 8.38068C285.724 7.90341 285.402 7.54119 284.973 7.29403C284.544 7.04687 284.011 6.9233 283.375 6.9233H281.858V13.3494ZM291.92 14.6321C291.275 14.6321 290.719 14.4943 290.254 14.2188C289.79 13.9403 289.433 13.5497 289.18 13.0469C288.93 12.5412 288.805 11.9489 288.805 11.2699C288.805 10.5994 288.93 10.0085 289.18 9.49716C289.433 8.9858 289.785 8.58665 290.237 8.29972C290.691 8.01278 291.222 7.86932 291.83 7.86932C292.2 7.86932 292.558 7.9304 292.904 8.05256C293.251 8.17472 293.562 8.36648 293.837 8.62784C294.113 8.8892 294.33 9.22869 294.489 9.64631C294.648 10.0611 294.728 10.5653 294.728 11.1591V11.6108H289.525V10.6562H293.479C293.479 10.321 293.411 10.0241 293.275 9.76562C293.138 9.50426 292.947 9.2983 292.7 9.14773C292.455 8.99716 292.168 8.92188 291.839 8.92188C291.481 8.92188 291.168 9.00994 290.901 9.18608C290.637 9.35937 290.433 9.58665 290.288 9.8679C290.146 10.1463 290.075 10.4489 290.075 10.7756V11.5213C290.075 11.9588 290.151 12.331 290.305 12.6378C290.461 12.9446 290.678 13.179 290.957 13.3409C291.235 13.5 291.56 13.5795 291.933 13.5795C292.174 13.5795 292.394 13.5455 292.593 13.4773C292.792 13.4062 292.964 13.3011 293.109 13.1619C293.254 13.0227 293.364 12.8509 293.441 12.6463L294.647 12.8636C294.55 13.2187 294.377 13.5298 294.127 13.7969C293.88 14.0611 293.569 14.267 293.194 14.4148C292.822 14.5597 292.397 14.6321 291.92 14.6321ZM297.416 5.77273V14.5H296.142V5.77273H297.416ZM299.13 14.5V7.95455H300.404V14.5H299.13ZM299.773 6.9446C299.552 6.9446 299.362 6.87074 299.202 6.72301C299.046 6.57244 298.968 6.39347 298.968 6.18608C298.968 5.97585 299.046 5.79687 299.202 5.64915C299.362 5.49858 299.552 5.4233 299.773 5.4233C299.995 5.4233 300.184 5.49858 300.34 5.64915C300.499 5.79687 300.579 5.97585 300.579 6.18608C300.579 6.39347 300.499 6.57244 300.34 6.72301C300.184 6.87074 299.995 6.9446 299.773 6.9446ZM307.718 7.95455L305.344 14.5H303.98L301.603 7.95455H302.971L304.628 12.9915H304.696L306.35 7.95455H307.718ZM311.513 14.6321C310.869 14.6321 310.313 14.4943 309.847 14.2188C309.384 13.9403 309.026 13.5497 308.773 13.0469C308.523 12.5412 308.398 11.9489 308.398 11.2699C308.398 10.5994 308.523 10.0085 308.773 9.49716C309.026 8.9858 309.379 8.58665 309.83 8.29972C310.285 8.01278 310.816 7.86932 311.424 7.86932C311.793 7.86932 312.151 7.9304 312.498 8.05256C312.844 8.17472 313.156 8.36648 313.431 8.62784C313.707 8.8892 313.924 9.22869 314.083 9.64631C314.242 10.0611 314.322 10.5653 314.322 11.1591V11.6108H309.119V10.6562H313.073C313.073 10.321 313.005 10.0241 312.869 9.76562C312.732 9.50426 312.54 9.2983 312.293 9.14773C312.049 8.99716 311.762 8.92188 311.433 8.92188C311.075 8.92188 310.762 9.00994 310.495 9.18608C310.231 9.35937 310.026 9.58665 309.881 9.8679C309.739 10.1463 309.668 10.4489 309.668 10.7756V11.5213C309.668 11.9588 309.745 12.331 309.898 12.6378C310.055 12.9446 310.272 13.179 310.55 13.3409C310.829 13.5 311.154 13.5795 311.526 13.5795C311.768 13.5795 311.988 13.5455 312.187 13.4773C312.386 13.4062 312.558 13.3011 312.702 13.1619C312.847 13.0227 312.958 12.8509 313.035 12.6463L314.241 12.8636C314.144 13.2187 313.971 13.5298 313.721 13.7969C313.474 14.0611 313.163 14.267 312.788 14.4148C312.415 14.5597 311.991 14.6321 311.513 14.6321ZM315.735 14.5V7.95455H316.967V8.99432H317.035C317.154 8.64205 317.365 8.36506 317.666 8.16335C317.97 7.95881 318.314 7.85653 318.697 7.85653C318.777 7.85653 318.87 7.85937 318.978 7.86506C319.089 7.87074 319.176 7.87784 319.238 7.88636V9.10511C319.187 9.09091 319.096 9.07528 318.966 9.05824C318.835 9.03835 318.704 9.02841 318.574 9.02841C318.272 9.02841 318.004 9.09233 317.768 9.22017C317.535 9.34517 317.35 9.51989 317.214 9.74432C317.078 9.96591 317.01 10.2187 317.01 10.5028V14.5H315.735ZM321.346 16.9545C321.155 16.9545 320.982 16.9389 320.826 16.9077C320.669 16.8793 320.553 16.848 320.476 16.8139L320.783 15.7699C321.016 15.8324 321.223 15.8594 321.405 15.8509C321.587 15.8423 321.748 15.7741 321.887 15.6463C322.029 15.5185 322.154 15.3097 322.262 15.0199L322.419 14.5852L320.025 7.95455H321.388L323.046 13.0341H323.114L324.772 7.95455H326.14L323.442 15.3736C323.317 15.7145 323.158 16.0028 322.965 16.2386C322.772 16.4773 322.542 16.6563 322.275 16.7756C322.007 16.8949 321.698 16.9545 321.346 16.9545Z" fill="#717171"/>
</svg>
