<svg width="20" height="20" viewBox="0 0 20 20" fill="none" xmlns="http://www.w3.org/2000/svg">
<path d="M10.0003 18.0416C9.74199 18.0416 9.49199 18.0083 9.28366 17.9333C6.10033 16.8416 1.04199 12.9666 1.04199 7.24158C1.04199 4.32492 3.40033 1.95825 6.30033 1.95825C7.70866 1.95825 9.02533 2.50825 10.0003 3.49159C10.9753 2.50825 12.292 1.95825 13.7003 1.95825C16.6003 1.95825 18.9587 4.33325 18.9587 7.24158C18.9587 12.9749 13.9003 16.8416 10.717 17.9333C10.5087 18.0083 10.2587 18.0416 10.0003 18.0416ZM6.30033 3.20825C4.09199 3.20825 2.29199 5.01658 2.29199 7.24158C2.29199 12.9333 7.76699 16.0999 9.69199 16.7583C9.84199 16.8083 10.167 16.8083 10.317 16.7583C12.2337 16.0999 17.717 12.9416 17.717 7.24158C17.717 5.01658 15.917 3.20825 13.7087 3.20825C12.442 3.20825 11.267 3.79992 10.5087 4.82492C10.2753 5.14159 9.74199 5.14159 9.50866 4.82492C8.73366 3.79159 7.56699 3.20825 6.30033 3.20825Z" fill="#2D2D2D"/>
</svg>
