<svg width="40" height="40" viewBox="0 0 40 40" fill="none" xmlns="http://www.w3.org/2000/svg">
<rect width="40" height="40" rx="20" fill="#AECDFB"/>
<path d="M16 30.3199C15.72 30.3199 15.43 30.2499 15.17 30.1099C14.6 29.8099 14.25 29.2099 14.25 28.5699V27.15C11.23 26.84 9.25 24.6199 9.25 21.4399V15.4399C9.25 11.9999 11.56 9.68994 15 9.68994H25C28.44 9.68994 30.75 11.9999 30.75 15.4399V21.4399C30.75 24.8799 28.44 27.1899 25 27.1899H21.23L16.97 30.03C16.68 30.22 16.34 30.3199 16 30.3199ZM15 11.1799C12.42 11.1799 10.75 12.8499 10.75 15.4299V21.43C10.75 24.01 12.42 25.68 15 25.68C15.41 25.68 15.75 26.02 15.75 26.43V28.56C15.75 28.69 15.83 28.75 15.88 28.78C15.93 28.81 16.03 28.84 16.14 28.77L20.59 25.81C20.71 25.73 20.86 25.68 21.01 25.68H25.01C27.59 25.68 29.26 24.01 29.26 21.43V15.4299C29.26 12.8499 27.59 11.1799 25.01 11.1799H15Z" fill="#2D2D2D"/>
<path d="M19.9998 20.11C19.5898 20.11 19.2498 19.77 19.2498 19.36V19.15C19.2498 17.99 20.0998 17.42 20.4198 17.2C20.7898 16.95 20.9098 16.78 20.9098 16.52C20.9098 16.02 20.4998 15.61 19.9998 15.61C19.4998 15.61 19.0898 16.02 19.0898 16.52C19.0898 16.93 18.7498 17.27 18.3398 17.27C17.9298 17.27 17.5898 16.93 17.5898 16.52C17.5898 15.19 18.6698 14.11 19.9998 14.11C21.3298 14.11 22.4098 15.19 22.4098 16.52C22.4098 17.66 21.5698 18.23 21.2598 18.44C20.8698 18.7 20.7498 18.87 20.7498 19.15V19.36C20.7498 19.78 20.4098 20.11 19.9998 20.11Z" fill="#2D2D2D"/>
<path d="M20 22.6C19.58 22.6 19.25 22.26 19.25 21.85C19.25 21.44 19.59 21.1 20 21.1C20.41 21.1 20.75 21.44 20.75 21.85C20.75 22.26 20.42 22.6 20 22.6Z" fill="#2D2D2D"/>
</svg>
