<svg width="32" height="24" viewBox="0 0 32 24" fill="none" xmlns="http://www.w3.org/2000/svg">
<g style="mix-blend-mode:luminosity">
<g clip-path="url(#clip0_4382_5109)">
<path d="M0 0H32V24H0V0Z" fill="white"/>
<path d="M28.4444 0H3.55556C1.59188 0 0 1.79086 0 4V20C0 22.2091 1.59188 24 3.55556 24H28.4444C30.4081 24 32 22.2091 32 20V4C32 1.79086 30.4081 0 28.4444 0Z" fill="white"/>
<path d="M28.4434 0.499756H3.55447C1.83625 0.499756 0.443359 2.06676 0.443359 3.99976V19.9998C0.443359 21.9328 1.83625 23.4998 3.55447 23.4998H28.4434C30.1616 23.4998 31.5545 21.9328 31.5545 19.9998V3.99976C31.5545 2.06676 30.1616 0.499756 28.4434 0.499756Z" stroke="#333333" stroke-opacity="0.07" stroke-width="0.970471"/>
<path d="M7.12246 8.61209C6.90583 8.40211 6.64624 8.24163 6.36157 8.14171C6.07691 8.0418 5.77395 8.00484 5.47362 8.03336H3.28972C3.21339 8.03485 3.13999 8.06293 3.08217 8.11277C3.02435 8.16262 2.98575 8.23108 2.97305 8.30635L2.00122 14.0718C1.99813 14.0994 2.00093 14.1274 2.00941 14.1538C2.01789 14.1802 2.03188 14.2045 2.05046 14.2251C2.06902 14.2458 2.09175 14.2622 2.11714 14.2735C2.14253 14.2847 2.17001 14.2904 2.19777 14.2902H3.28972C3.35504 14.2874 3.41803 14.2651 3.47057 14.2262C3.52311 14.1872 3.5628 14.1335 3.58455 14.0718L3.82477 12.4994C3.83289 12.4242 3.86864 12.3545 3.92512 12.3042C3.98161 12.2537 4.05479 12.226 4.13052 12.2264H4.84029C5.15424 12.2627 5.47231 12.2341 5.77469 12.1421C6.07708 12.0502 6.35733 11.8971 6.59801 11.6922C6.83869 11.4874 7.03466 11.2353 7.17373 10.9515C7.31279 10.6677 7.39197 10.3583 7.40637 10.0425C7.46789 9.79793 7.47433 9.54277 7.42522 9.2954C7.37613 9.04803 7.27272 8.81464 7.12246 8.61209ZM5.73568 10.1299C5.61557 10.9379 4.99316 10.9379 4.40351 10.9379H4.065L4.29431 9.42014C4.30178 9.37569 4.3243 9.33516 4.35809 9.30534C4.39189 9.27553 4.43491 9.25822 4.47994 9.25634H4.63282C5.03684 9.25634 5.42994 9.25634 5.61557 9.48565C5.68354 9.57669 5.72972 9.68212 5.75055 9.79378C5.77137 9.90548 5.76628 10.0205 5.73568 10.1299Z" fill="#253B80"/>
<path d="M12.2212 10.0965H11.1292C11.0848 10.0989 11.0421 10.1149 11.0071 10.1423C10.9719 10.1696 10.9459 10.2069 10.9327 10.2494V10.5661L10.8563 10.446C10.6909 10.2797 10.4901 10.1529 10.2689 10.0753C10.0476 9.99782 9.81159 9.9714 9.57868 9.99826C8.98127 10.0121 8.40876 10.2403 7.96576 10.6413C7.52272 11.0423 7.23866 11.5891 7.16544 12.1822C7.11021 12.4734 7.11768 12.773 7.18734 13.0611C7.25701 13.3491 7.38728 13.6191 7.56946 13.8528C7.74027 14.042 7.95211 14.1894 8.18863 14.284C8.42525 14.3787 8.68033 14.4179 8.93443 14.3988C9.21124 14.4018 9.48586 14.3481 9.74127 14.2411C9.99657 14.134 10.2274 13.9759 10.4195 13.7764V14.0931C10.4163 14.1435 10.4328 14.1932 10.4652 14.2317C10.4978 14.2704 10.544 14.2951 10.5942 14.3005H11.566C11.6419 14.304 11.7164 14.2791 11.7749 14.2306C11.8334 14.1823 11.8719 14.1137 11.8827 14.0385L12.4614 10.3149C12.4737 10.2822 12.4758 10.2466 12.4676 10.2125C12.4595 10.1785 12.4412 10.1477 12.4153 10.1243C12.3895 10.1008 12.3571 10.0855 12.3225 10.0806C12.2879 10.0757 12.2525 10.0812 12.2212 10.0965ZM9.49132 13.2523C9.35778 13.2597 9.22434 13.2381 9.09997 13.1891C8.97548 13.1401 8.86323 13.0648 8.77063 12.9684C8.69081 12.8575 8.63425 12.7317 8.60422 12.5985C8.57419 12.4653 8.57135 12.3274 8.59592 12.1931C8.63043 11.8948 8.7726 11.6193 8.99568 11.4182C9.21888 11.2172 9.50759 11.1045 9.80799 11.1011C9.94328 11.095 10.0782 11.1193 10.2031 11.1722C10.3278 11.2251 10.439 11.3053 10.5287 11.4069C10.618 11.5105 10.6813 11.6338 10.7136 11.7667C10.746 11.8996 10.7462 12.0382 10.7143 12.1712C10.6817 12.4714 10.5383 12.7485 10.312 12.9485C10.0858 13.1484 9.79314 13.2567 9.49132 13.2523Z" fill="#253B80"/>
<path d="M17.9661 10.0966H16.8741C16.822 10.0959 16.7705 10.1087 16.7246 10.1335C16.6788 10.1584 16.64 10.1946 16.612 10.2386L15.1161 12.4225L14.4827 10.2932C14.4622 10.2277 14.4217 10.1704 14.3668 10.1294C14.312 10.0882 14.2456 10.0653 14.177 10.0638H13.0851C13.055 10.0637 13.0253 10.0708 12.9986 10.0847C12.9718 10.0986 12.9489 10.1188 12.9317 10.1434C12.9145 10.1682 12.9036 10.1967 12.8999 10.2267C12.8961 10.2565 12.8997 10.2868 12.9103 10.315L14.1006 13.8529L13.0086 15.4472C12.9884 15.4751 12.9763 15.5081 12.9737 15.5425C12.9711 15.5768 12.9781 15.6113 12.994 15.6418C13.0098 15.6724 13.0339 15.6981 13.0635 15.7158C13.0931 15.7335 13.1271 15.7425 13.1615 15.742H14.2534C14.3048 15.7449 14.356 15.7343 14.4019 15.7114C14.4479 15.6884 14.4871 15.6537 14.5155 15.6109L18.1189 10.3587C18.1314 10.3317 18.1371 10.302 18.1355 10.2723C18.134 10.2426 18.1255 10.2138 18.1105 10.188C18.0955 10.1623 18.0746 10.1406 18.0495 10.1248C18.0243 10.1088 17.9958 10.0992 17.9661 10.0966Z" fill="#253B80"/>
<path d="M23.2076 8.61168C22.9906 8.4023 22.7309 8.24221 22.4463 8.14234C22.1618 8.04246 21.8591 8.00514 21.5588 8.03294H19.2985C19.2239 8.03274 19.152 8.06078 19.0973 8.11143C19.0426 8.16209 19.0091 8.23158 19.0036 8.30593L18.0755 14.0714C18.0723 14.099 18.0751 14.127 18.0837 14.1534C18.0921 14.1798 18.1062 14.2042 18.1247 14.2248C18.1433 14.2453 18.166 14.2618 18.1913 14.2731C18.2168 14.2843 18.2442 14.29 18.272 14.2898H19.4295C19.4819 14.2875 19.5317 14.2663 19.5698 14.2301C19.6079 14.1941 19.6317 14.1455 19.637 14.0932L19.899 12.4444C19.9093 12.37 19.9458 12.3018 20.0018 12.2518C20.0577 12.2017 20.1296 12.1734 20.2048 12.1714H20.9255C21.2389 12.2045 21.5556 12.1735 21.8567 12.0803C22.1577 11.9872 22.4367 11.8339 22.6766 11.6297C22.9166 11.4254 23.1126 11.1745 23.2527 10.8923C23.3927 10.61 23.474 10.3022 23.4915 9.98749C23.54 9.75097 23.5398 9.50694 23.491 9.27041C23.4422 9.03387 23.3458 8.80975 23.2076 8.61168ZM21.8099 10.1622C21.7007 10.9702 21.0783 10.9702 20.4778 10.9702H20.1393L20.3795 9.45248C20.3808 9.42951 20.3868 9.40705 20.3968 9.38638C20.4069 9.36572 20.421 9.34725 20.4382 9.33202C20.4555 9.3168 20.4756 9.30514 20.4973 9.2977C20.5191 9.29027 20.5421 9.2872 20.5651 9.28869H20.7289C21.1329 9.28869 21.5151 9.28869 21.7117 9.51799C21.7711 9.60684 21.8106 9.70751 21.8275 9.81299C21.8446 9.91859 21.8386 10.0265 21.8099 10.1294V10.1622Z" fill="#179BD7"/>
<path d="M28.2947 10.0971H27.2027C27.1573 10.0959 27.113 10.1105 27.0771 10.1383C27.0413 10.1663 27.0162 10.2056 27.0062 10.2499V10.5666L26.9297 10.4465C26.767 10.2796 26.5683 10.1524 26.3486 10.0748C26.1289 9.99714 25.8943 9.97115 25.6631 9.99878C25.0657 10.0126 24.4932 10.2409 24.0502 10.6417C23.6072 11.0427 23.323 11.5896 23.2499 12.1827C23.1886 12.4737 23.1931 12.7746 23.2631 13.0637C23.333 13.3527 23.4664 13.6224 23.6539 13.8534C23.8219 14.0428 24.0317 14.1908 24.2667 14.2855C24.5016 14.3802 24.7553 14.4192 25.0079 14.3993C25.2864 14.4018 25.5624 14.348 25.8194 14.241C26.0766 14.1341 26.3094 13.9762 26.5039 13.7769V14.0936C26.5007 14.1197 26.5032 14.1462 26.5112 14.1713C26.5191 14.1964 26.5323 14.2196 26.5498 14.2391C26.5674 14.2588 26.5889 14.2744 26.613 14.2851C26.6371 14.2958 26.6632 14.3012 26.6895 14.3011H27.6613C27.7354 14.3018 27.8072 14.2756 27.8635 14.2275C27.9197 14.1792 27.9565 14.1123 27.9671 14.039L28.5021 10.3154C28.5076 10.2865 28.5061 10.2567 28.4978 10.2285C28.4895 10.2002 28.4745 10.1745 28.4543 10.1531C28.434 10.1318 28.409 10.1156 28.3813 10.1058C28.3534 10.0961 28.3238 10.093 28.2947 10.0971ZM25.5757 13.2528C25.4404 13.261 25.3051 13.2399 25.1788 13.1909C25.0526 13.1418 24.9383 13.0662 24.8441 12.9689C24.7639 12.8584 24.7078 12.7323 24.6796 12.5987C24.6514 12.4651 24.6516 12.327 24.6803 12.1936C24.71 11.8953 24.8492 11.6185 25.071 11.4168C25.2929 11.2151 25.5816 11.1028 25.8815 11.1016C26.0205 11.0894 26.1603 11.111 26.2891 11.1648C26.4179 11.2185 26.5317 11.3027 26.6208 11.41C26.7099 11.5173 26.7717 11.6448 26.8008 11.7813C26.8298 11.9177 26.8253 12.0592 26.7878 12.1936C26.755 12.4898 26.6123 12.763 26.3879 12.9592C26.1635 13.1553 25.8736 13.26 25.5757 13.2528Z" fill="#179BD7"/>
<path d="M30.7966 8.00043H29.7047C29.66 7.9973 29.6159 8.0114 29.5814 8.03985C29.5468 8.06829 29.5245 8.1089 29.519 8.1533L28.6455 14.0717C28.6407 14.0987 28.6419 14.1264 28.649 14.1528C28.6561 14.1792 28.6689 14.2038 28.6867 14.2247C28.7044 14.2455 28.7266 14.2622 28.7516 14.2736C28.7765 14.2848 28.8037 14.2905 28.8311 14.2901H29.7593C29.8333 14.2908 29.9051 14.2646 29.9614 14.2165C30.0176 14.1682 30.0544 14.1013 30.065 14.028L30.9822 8.2079C30.9853 8.18176 30.9828 8.15525 30.9749 8.13014C30.967 8.10504 30.9537 8.0819 30.9363 8.06228C30.9187 8.04265 30.8972 8.027 30.873 8.01634C30.849 8.00567 30.8229 8.00025 30.7966 8.00043Z" fill="#179BD7"/>
</g>
</g>
<defs>
<clipPath id="clip0_4382_5109">
<rect width="32" height="24" rx="4" fill="white"/>
</clipPath>
</defs>
</svg>
